<?xml version="1.0" encoding="UTF-8" standalone="no"?><svg xmlns="http://www.w3.org/2000/svg" xmlns:xlink="http://www.w3.org/1999/xlink" contentScriptType="application/ecmascript" contentStyleType="text/css" height="514px" preserveAspectRatio="none" style="width:815px;height:514px;background:#FFFFFF;" version="1.1" viewBox="0 0 815 514" width="815px" zoomAndPan="magnify"><defs><filter height="300%" id="flwr8d7bsd3rp" width="300%" x="-1" y="-1"><feGaussianBlur result="blurOut" stdDeviation="2.0"/><feColorMatrix in="blurOut" result="blurOut2" type="matrix" values="0 0 0 0 0 0 0 0 0 0 0 0 0 0 0 0 0 0 .4 0"/><feOffset dx="4.0" dy="4.0" in="blurOut2" result="blurOut3"/><feBlend in="SourceGraphic" in2="blurOut3" mode="normal"/></filter></defs><g><!--MD5=[aa9aa478b513889dc0a7f0c6069e4c16]
cluster ts--><polygon fill="#FFFFFF" filter="url(#flwr8d7bsd3rp)" points="16,6,36,6,43,28.4883,798,28.4883,798,507,16,507,16,6" style="stroke:#000000;stroke-width:1.5;"/><line style="stroke:#000000;stroke-width:1.5;" x1="16" x2="43" y1="28.4883" y2="28.4883"/><text fill="#000000" font-family="sans-serif" font-size="14" font-weight="bold" lengthAdjust="spacing" textLength="14" x="20" y="21.5352">ts</text><!--MD5=[0c2e12f724a2bba325ddf189ef351421]
class Timesheet--><rect codeLine="6" fill="#FEFECE" filter="url(#flwr8d7bsd3rp)" height="66.043" id="Timesheet" style="stroke:#A80036;stroke-width:1.5;" width="136" x="417" y="41"/><text fill="#000000" font-family="sans-serif" font-size="12" lengthAdjust="spacing" textLength="60" x="455" y="57.6016">Timesheet</text><line style="stroke:#A80036;stroke-width:1.5;" x1="418" x2="552" y1="65.1328" y2="65.1328"/><text fill="#000000" font-family="sans-serif" font-size="11" lengthAdjust="spacing" textLength="100" x="423" y="79.7676">project : Project [*]</text><text fill="#000000" font-family="sans-serif" font-size="11" lengthAdjust="spacing" textLength="124" x="423" y="92.7227">vf:provider : foaf:Agent</text><line style="stroke:#A80036;stroke-width:1.5;" x1="418" x2="552" y1="99.043" y2="99.043"/><path d="M588.5,41 L588.5,64.9658 L547,88.5654 L588.5,72.9658 L588.5,96.9316 A0,0 0 0 0 588.5,96.9316 L767.5,96.9316 A0,0 0 0 0 767.5,96.9316 L767.5,51 L757.5,41 L588.5,41 A0,0 0 0 0 588.5,41 " fill="#FBFB77" filter="url(#flwr8d7bsd3rp)" style="stroke:#A80036;stroke-width:1.0;"/><path d="M757.5,41 L757.5,51 L767.5,51 L757.5,41 " fill="#FBFB77" style="stroke:#A80036;stroke-width:1.0;"/><text fill="#000000" font-family="sans-serif" font-size="13" lengthAdjust="spacing" textLength="143" x="594.5" y="58.5684">in Timeld, the provider</text><text fill="#000000" font-family="sans-serif" font-size="13" lengthAdjust="spacing" textLength="107" x="594.5" y="73.8789">is entailed as the</text><text fill="#000000" font-family="sans-serif" font-size="13" lengthAdjust="spacing" textLength="158" x="594.5" y="89.1895">timesheet account owner</text><!--MD5=[96293e8b231702a792e4ba32419ac2da]
class Entry--><rect codeLine="19" fill="#FEFECE" filter="url(#flwr8d7bsd3rp)" height="104.9082" id="Entry" style="stroke:#A80036;stroke-width:1.5;" width="137" x="271.5" y="212"/><text fill="#000000" font-family="sans-serif" font-size="12" lengthAdjust="spacing" textLength="29" x="325.5" y="228.6016">Entry</text><line style="stroke:#A80036;stroke-width:1.5;" x1="272.5" x2="407.5" y1="236.1328" y2="236.1328"/><text fill="#000000" font-family="sans-serif" font-size="11" lengthAdjust="spacing" textLength="102" x="277.5" y="250.7676">activity : xsd:string</text><text fill="#000000" font-family="sans-serif" font-size="11" lengthAdjust="spacing" textLength="125" x="277.5" y="263.7227">hourlyRate : hourlyRate</text><text fill="#000000" font-family="sans-serif" font-size="11" lengthAdjust="spacing" textLength="124" x="277.5" y="276.6777">vf:provider : foaf:Agent</text><text fill="#000000" font-family="sans-serif" font-size="11" lengthAdjust="spacing" textLength="106" x="277.5" y="289.6328">start : xsd:dateTime</text><text fill="#000000" font-family="sans-serif" font-size="11" lengthAdjust="spacing" textLength="119" x="277.5" y="302.5879">duration : xsd:decimal</text><line style="stroke:#A80036;stroke-width:1.5;" x1="272.5" x2="407.5" y1="308.9082" y2="308.9082"/><path d="M32,206 L32,246.6211 A0,0 0 0 0 32,246.6211 L155,246.6211 A0,0 0 0 0 155,246.6211 L155,230.3105 L275.5,259.5654 L155,222.3105 L155,216 L145,206 L32,206 A0,0 0 0 0 32,206 " fill="#FBFB77" filter="url(#flwr8d7bsd3rp)" style="stroke:#A80036;stroke-width:1.0;"/><path d="M145,206 L145,216 L155,216 L145,206 " fill="#FBFB77" style="stroke:#A80036;stroke-width:1.0;"/><text fill="#000000" font-family="sans-serif" font-size="13" lengthAdjust="spacing" textLength="95" x="38" y="223.5684">hourlyRate still</text><text fill="#000000" font-family="sans-serif" font-size="13" lengthAdjust="spacing" textLength="102" x="38" y="238.8789">to be elaborated</text><path d="M32,256.6211 L32,312.5527 A0,0 0 0 0 32,312.5527 L236,312.5527 A0,0 0 0 0 236,312.5527 L236,288.5869 L275.5,298.4307 L236,280.5869 L236,266.6211 L226,256.6211 L32,256.6211 A0,0 0 0 0 32,256.6211 " fill="#FBFB77" filter="url(#flwr8d7bsd3rp)" style="stroke:#A80036;stroke-width:1.0;"/><path d="M226,256.6211 L226,266.6211 L236,266.6211 L226,256.6211 " fill="#FBFB77" style="stroke:#A80036;stroke-width:1.0;"/><text fill="#000000" font-family="sans-serif" font-size="13" lengthAdjust="spacing" textLength="115" x="38" y="274.1895">fractional minutes</text><text fill="#000000" font-family="sans-serif" font-size="13" lengthAdjust="spacing" textLength="183" x="38" y="289.5">could also be a sub-property</text><text fill="#000000" font-family="sans-serif" font-size="13" lengthAdjust="spacing" textLength="122" x="38" y="304.8105">of vf:effortQuantity</text><!--MD5=[e66c67d430336d46da75a5fc9d9d1b7c]
class vf:Action--><rect fill="#FEFECE" filter="url(#flwr8d7bsd3rp)" height="40.1328" id="vf:Action" style="stroke:#A80036;stroke-width:1.5;" width="55" x="312.5" y="54"/><text fill="#000000" font-family="sans-serif" font-size="12" lengthAdjust="spacing" textLength="49" x="315.5" y="70.6016">vf:Action</text><line style="stroke:#A80036;stroke-width:1.5;" x1="313.5" x2="366.5" y1="78.1328" y2="78.1328"/><line style="stroke:#A80036;stroke-width:1.5;" x1="313.5" x2="366.5" y1="86.1328" y2="86.1328"/><!--MD5=[84612bed34b900519fce1dd1c39e16c2]
class foaf:Agent--><rect codeLine="67" fill="#FEFECE" filter="url(#flwr8d7bsd3rp)" height="53.0879" id="foaf:Agent" style="stroke:#A80036;stroke-width:1.5;" width="129" x="370.5" y="438"/><text fill="#000000" font-family="sans-serif" font-size="12" lengthAdjust="spacing" textLength="59" x="405.5" y="454.6016">foaf:Agent</text><line style="stroke:#A80036;stroke-width:1.5;" x1="371.5" x2="498.5" y1="462.1328" y2="462.1328"/><text fill="#000000" font-family="sans-serif" font-size="11" lengthAdjust="spacing" textLength="117" x="376.5" y="476.7676">foaf:name : xsd:string</text><line style="stroke:#A80036;stroke-width:1.5;" x1="371.5" x2="498.5" y1="483.0879" y2="483.0879"/><!--MD5=[79d378210367c0c6ec62ef762ddfbd1b]
class Project--><rect codeLine="42" fill="#FEFECE" filter="url(#flwr8d7bsd3rp)" height="104.9082" id="Project" style="stroke:#A80036;stroke-width:1.5;" width="137" x="443.5" y="212"/><text fill="#000000" font-family="sans-serif" font-size="12" lengthAdjust="spacing" textLength="40" x="492" y="228.6016">Project</text><line style="stroke:#A80036;stroke-width:1.5;" x1="444.5" x2="579.5" y1="236.1328" y2="236.1328"/><text fill="#000000" font-family="sans-serif" font-size="11" lengthAdjust="spacing" textLength="106" x="449.5" y="250.7676">start : xsd:dateTime</text><text fill="#000000" font-family="sans-serif" font-size="11" lengthAdjust="spacing" textLength="119" x="449.5" y="263.7227">duration : xsd:decimal</text><text fill="#000000" font-family="sans-serif" font-size="11" lengthAdjust="spacing" textLength="116" x="449.5" y="276.6777">milestone : xsd:string</text><text fill="#000000" font-family="sans-serif" font-size="11" lengthAdjust="spacing" textLength="125" x="449.5" y="289.6328">client : foaf:Agent [0..1]</text><text fill="#000000" font-family="sans-serif" font-size="11" lengthAdjust="spacing" textLength="124" x="449.5" y="302.5879">vf:provider : foaf:Agent</text><line style="stroke:#A80036;stroke-width:1.5;" x1="444.5" x2="579.5" y1="308.9082" y2="308.9082"/><path d="M616,168 L616,222.5869 L574.5,285.4756 L616,230.5869 L616,285.1738 A0,0 0 0 0 616,285.1738 L782,285.1738 A0,0 0 0 0 782,285.1738 L782,178 L772,168 L616,168 A0,0 0 0 0 616,168 " fill="#FBFB77" filter="url(#flwr8d7bsd3rp)" style="stroke:#A80036;stroke-width:1.0;"/><path d="M772,168 L772,178 L782,178 L772,168 " fill="#FBFB77" style="stroke:#A80036;stroke-width:1.0;"/><text fill="#000000" font-family="sans-serif" font-size="13" lengthAdjust="spacing" textLength="107" x="622" y="185.5684">client property is</text><text fill="#000000" font-family="sans-serif" font-size="13" lengthAdjust="spacing" textLength="125" x="622" y="200.8789">also a sub-property</text><text fill="#000000" font-family="sans-serif" font-size="13" lengthAdjust="spacing" textLength="82" x="622" y="216.1895">of vf:receiver</text><text fill="#000000" font-family="sans-serif" font-size="13" lengthAdjust="spacing" textLength="0" x="626" y="231.5"/><text fill="#000000" font-family="sans-serif" font-size="13" lengthAdjust="spacing" textLength="145" x="622" y="246.8105">in Timeld, it is entailed</text><text fill="#000000" font-family="sans-serif" font-size="13" lengthAdjust="spacing" textLength="142" x="622" y="262.1211">as the owning account</text><text fill="#000000" font-family="sans-serif" font-size="13" lengthAdjust="spacing" textLength="142" x="622" y="277.4316">(and so, always exists)</text><path d="M616,295.1738 L616,319.1396 L573.5,298.4307 L616,327.1396 L616,351.1055 A0,0 0 0 0 616,351.1055 L779,351.1055 A0,0 0 0 0 779,351.1055 L779,305.1738 L769,295.1738 L616,295.1738 A0,0 0 0 0 616,295.1738 " fill="#FBFB77" filter="url(#flwr8d7bsd3rp)" style="stroke:#A80036;stroke-width:1.0;"/><path d="M769,295.1738 L769,305.1738 L779,305.1738 L769,295.1738 " fill="#FBFB77" style="stroke:#A80036;stroke-width:1.0;"/><text fill="#000000" font-family="sans-serif" font-size="13" lengthAdjust="spacing" textLength="134" x="622" y="312.7422">only timesheets from</text><text fill="#000000" font-family="sans-serif" font-size="13" lengthAdjust="spacing" textLength="142" x="622" y="328.0527">these providers can be</text><text fill="#000000" font-family="sans-serif" font-size="13" lengthAdjust="spacing" textLength="131" x="622" y="343.3633">added to this project</text><!--MD5=[f59287a37ea7426887cc54bb6a33788a]
link Timesheet to Timesheet$$$RIGHT--><!--MD5=[9fb479e981d38c7d45cea0a3de079dbd]
reverse link Timesheet to Entry--><path codeLine="17" d="M451.93,118 C430.52,145.82 402.53,182.21 379.9,211.63 " fill="none" id="Timesheet-backto-Entry" style="stroke:#A80036;stroke-width:1.0;"/><polygon fill="#A80036" points="460.07,107.4,453.2405,109.7146,452.7503,116.909,459.5798,114.5944,460.07,107.4" style="stroke:#A80036;stroke-width:1.0;"/><text fill="#000000" font-family="sans-serif" font-size="13" lengthAdjust="spacing" textLength="8" x="446.736" y="127.534">1</text><text fill="#000000" font-family="sans-serif" font-size="13" lengthAdjust="spacing" textLength="6" x="378.8584" y="201.1132">*</text><!--MD5=[c437f673c281c7b045719cb4870db9cd]
link Entry$$$LEFT to Entry--><!--MD5=[e793f0bed39436c636a80cadd69c331c]
reverse link vf:Action to Entry--><path codeLine="38" d="M340,114.26 C340,142.52 340,180.92 340,211.69 " fill="none" id="vf:Action-backto-Entry" style="stroke:#A80036;stroke-width:1.0;"/><polygon fill="none" points="333,114.11,340,94.11,347,114.11,333,114.11" style="stroke:#A80036;stroke-width:1.0;"/><!--MD5=[40e47b055a33d05f09d872b96785d165]
reverse link Entry to foaf:Agent--><path codeLine="40" d="M370.56,329.2 C388.28,366.12 409.6,410.57 422.73,437.93 " fill="none" id="Entry-backto-foaf:Agent" style="stroke:#A80036;stroke-width:1.0;"/><polygon fill="#FFFFFF" points="364.71,317.01,363.6927,324.149,369.8912,327.8338,370.9085,320.6948,364.71,317.01" style="stroke:#A80036;stroke-width:1.0;"/><text fill="#000000" font-family="sans-serif" font-size="13" lengthAdjust="spacing" textLength="8" x="410.7642" y="427.2209">1</text><!--MD5=[411c2a8c6e7ae06fe3feeb6aed81b2dc]
link Project to Project$$$RIGHT--><!--MD5=[f916e162bce7c7efe9a8de5f08f8c74c]
link Timesheet to Project--><path codeLine="65" d="M489.64,107.4 C493.74,136.04 499.8,178.3 504.57,211.63 " fill="none" id="Timesheet-Project" style="stroke:#A80036;stroke-width:1.0;"/><text fill="#000000" font-family="sans-serif" font-size="13" lengthAdjust="spacing" textLength="6" x="483.9424" y="127.534">*</text><text fill="#000000" font-family="sans-serif" font-size="13" lengthAdjust="spacing" textLength="6" x="497.1685" y="201.1132">*</text><!--MD5=[57885c9b417812a9a829c42dfbf510e9]
link Project to foaf:Agent--><path codeLine="71" d="M469.69,317.19 C454.7,338.67 439.67,364.71 432,391 C427.59,406.12 428.2,423.76 429.98,437.85 " fill="none" id="Project-foaf:Agent" style="stroke:#A80036;stroke-width:1.0;"/><text fill="#000000" font-family="sans-serif" font-size="13" lengthAdjust="spacing" textLength="35" x="433" y="404.5684">client</text><text fill="#000000" font-family="sans-serif" font-size="13" lengthAdjust="spacing" textLength="6" x="457.8847" y="337.496">*</text><text fill="#000000" font-family="sans-serif" font-size="13" lengthAdjust="spacing" textLength="24" x="431.6814" y="427.1214">0..1</text><!--MD5=[57885c9b417812a9a829c42dfbf510e9]
link Project to foaf:Agent--><path codeLine="72" d="M502.25,317.07 C495.94,344.81 486.37,379.14 473,408 C468.24,418.28 461.63,428.74 455.26,437.76 " fill="none" id="Project-foaf:Agent-1" style="stroke:#A80036;stroke-width:1.0;"/><text fill="#000000" font-family="sans-serif" font-size="13" lengthAdjust="spacing" textLength="68" x="480" y="404.5684">vf:provider</text><text fill="#000000" font-family="sans-serif" font-size="13" lengthAdjust="spacing" textLength="6" x="494.6164" y="337.3606">*</text><text fill="#000000" font-family="sans-serif" font-size="13" lengthAdjust="spacing" textLength="6" x="460.6389" y="427.4361">*</text><!--MD5=[9993d9e70b8d2d0a1bde231d086126dc]
@startuml
'https://plantuml.com/class-diagram

hide circle

package ts {
    class Timesheet {
        project : Project [*]
        vf:provider : foaf:Agent
    }

    note right of Timesheet::vf:provider
      in Timeld, the provider
      is entailed as the
      timesheet account owner
    end note

    Timesheet "1" *- - "*" Entry

    class Entry {
        activity : xsd:string
        hourlyRate : hourlyRate
        vf:provider : foaf:Agent
        start : xsd:dateTime
        duration : xsd:decimal
    }

    note left of Entry::hourlyRate
        hourlyRate still
        to be elaborated
    end note

    note left of Entry::duration
        fractional minutes
        could also be a sub-property
        of vf:effortQuantity
    end note

    "vf:Action" <|- - Entry

    Entry o- - "1" "foaf:Agent"

    class Project {
        start : xsd:dateTime
        duration : xsd:decimal
        milestone : xsd:string
        client : foaf:Agent [0..1]
        vf:provider : foaf:Agent
    }
    note right of Project::client
      client property is
      also a sub-property
      of vf:receiver

      in Timeld, it is entailed
      as the owning account
      (and so, always exists)
    end note

    note right of Project::vf:provider
      only timesheets from
      these providers can be
      added to this project
    end note

    Timesheet "*" - - "*" Project

    class foaf:Agent {
        foaf:name : xsd:string
    }

    Project "*" - - "0..1" "foaf:Agent": client
    Project "*" - - "*" "foaf:Agent": vf:provider
}

@enduml

@startuml

hide circle

package ts {
    class Timesheet {
        project : Project [*]
        vf:provider : foaf:Agent
    }

    note right of Timesheet::vf:provider
      in Timeld, the provider
      is entailed as the
      timesheet account owner
    end note

    Timesheet "1" *- - "*" Entry

    class Entry {
        activity : xsd:string
        hourlyRate : hourlyRate
        vf:provider : foaf:Agent
        start : xsd:dateTime
        duration : xsd:decimal
    }

    note left of Entry::hourlyRate
        hourlyRate still
        to be elaborated
    end note

    note left of Entry::duration
        fractional minutes
        could also be a sub-property
        of vf:effortQuantity
    end note

    "vf:Action" <|- - Entry

    Entry o- - "1" "foaf:Agent"

    class Project {
        start : xsd:dateTime
        duration : xsd:decimal
        milestone : xsd:string
        client : foaf:Agent [0..1]
        vf:provider : foaf:Agent
    }
    note right of Project::client
      client property is
      also a sub-property
      of vf:receiver

      in Timeld, it is entailed
      as the owning account
      (and so, always exists)
    end note

    note right of Project::vf:provider
      only timesheets from
      these providers can be
      added to this project
    end note

    Timesheet "*" - - "*" Project

    class foaf:Agent {
        foaf:name : xsd:string
    }

    Project "*" - - "0..1" "foaf:Agent": client
    Project "*" - - "*" "foaf:Agent": vf:provider
}

@enduml

PlantUML version 1.2021.10(Mon Aug 30 14:43:48 BST 2021)
(GPL source distribution)
Java Runtime: OpenJDK Runtime Environment
JVM: OpenJDK 64-Bit Server VM
Default Encoding: UTF-8
Language: en
Country: GB
--></g></svg>