<?xml version="1.0" encoding="UTF-8" standalone="no"?><svg xmlns="http://www.w3.org/2000/svg" xmlns:xlink="http://www.w3.org/1999/xlink" contentScriptType="application/ecmascript" contentStyleType="text/css" height="323px" preserveAspectRatio="none" style="width:892px;height:323px;background:#FFFFFF;" version="1.1" viewBox="0 0 892 323" width="892px" zoomAndPan="magnify"><defs><filter height="300%" id="fhg401arts766" width="300%" x="-1" y="-1"><feGaussianBlur result="blurOut" stdDeviation="2.0"/><feColorMatrix in="blurOut" result="blurOut2" type="matrix" values="0 0 0 0 0 0 0 0 0 0 0 0 0 0 0 0 0 0 .4 0"/><feOffset dx="4.0" dy="4.0" in="blurOut2" result="blurOut3"/><feBlend in="SourceGraphic" in2="blurOut3" mode="normal"/></filter></defs><g><!--MD5=[caff709fa8452ba53c7cf49bc63f9f9f]
cluster timeld-data--><polygon fill="#FFFFFF" filter="url(#fhg401arts766)" points="16,6,100,6,107,29.6094,875,29.6094,875,316,16,316,16,6" style="stroke:#000000;stroke-width:1.5;"/><line style="stroke:#000000;stroke-width:1.5;" x1="16" x2="107" y1="29.6094" y2="29.6094"/><text fill="#000000" font-family="sans-serif" font-size="14" font-weight="bold" lengthAdjust="spacing" textLength="78" x="20" y="22.5332">timeld-data</text><rect fill="#FFC0CB" filter="url(#fhg401arts766)" height="89.9844" style="stroke:#A80036;stroke-width:1.5;" width="251" x="200.5" y="42"/><text fill="#000000" font-family="sans-serif" font-size="12" lengthAdjust="spacing" textLength="97" x="277.5" y="56.457">timesheet000001</text><line style="stroke:#A80036;stroke-width:1.5;" x1="201.5" x2="450.5" y1="61.0938" y2="61.0938"/><text fill="#000000" font-family="sans-serif" font-size="10" lengthAdjust="spacing" textLength="57" x="206.5" y="75.4746">id = 000001</text><text fill="#000000" font-family="sans-serif" font-size="10" lengthAdjust="spacing" textLength="239" x="206.5" y="88.0527">description = "Week commencing 11th April 2022"</text><text fill="#000000" font-family="sans-serif" font-size="10" lengthAdjust="spacing" textLength="129" x="206.5" y="100.6309">purpose = "Cost Allocation"</text><text fill="#000000" font-family="sans-serif" font-size="10" lengthAdjust="spacing" textLength="68" x="206.5" y="113.209">status = "Draft"</text><text fill="#000000" font-family="sans-serif" font-size="10" lengthAdjust="spacing" textLength="68" x="206.5" y="125.7871">version = "0.1"</text><path d="M486.5,57.5 L486.5,83 L451.68,87 L486.5,91 L486.5,116.5547 A0,0 0 0 0 486.5,116.5547 L699.5,116.5547 A0,0 0 0 0 699.5,116.5547 L699.5,67.5 L689.5,57.5 L486.5,57.5 A0,0 0 0 0 486.5,57.5 " fill="#FBFB77" filter="url(#fhg401arts766)" style="stroke:#A80036;stroke-width:1.0;"/><path d="M689.5,57.5 L689.5,67.5 L699.5,67.5 L689.5,57.5 " fill="#FBFB77" style="stroke:#A80036;stroke-width:1.0;"/><text fill="#000000" font-family="sans-serif" font-size="13" lengthAdjust="spacing" textLength="152" x="492.5" y="75.9951">version refers to timesheet</text><text fill="#000000" font-family="sans-serif" font-size="13" lengthAdjust="spacing" textLength="140" x="492.5" y="92.3467">revision; should be auto-</text><text fill="#000000" font-family="sans-serif" font-size="13" lengthAdjust="spacing" textLength="192" x="492.5" y="108.6982">incremented by timesheeting tool</text><rect fill="#FFC0CB" filter="url(#fhg401arts766)" height="77.4063" style="stroke:#A80036;stroke-width:1.5;" width="166" x="269" y="216.5"/><text fill="#000000" font-family="sans-serif" font-size="12" lengthAdjust="spacing" textLength="35" x="334.5" y="230.957">angus</text><line style="stroke:#A80036;stroke-width:1.5;" x1="270" x2="434" y1="235.5938" y2="235.5938"/><text fill="#000000" font-family="sans-serif" font-size="10" lengthAdjust="spacing" textLength="154" x="275" y="249.9746">rdf:label = "Angus the Awesome"</text><text fill="#000000" font-family="sans-serif" font-size="10" lengthAdjust="spacing" textLength="93" x="275" y="262.5527">firstName = "Angus"</text><text fill="#000000" font-family="sans-serif" font-size="10" lengthAdjust="spacing" textLength="111" x="275" y="275.1309">lastName = "McAllister"</text><text fill="#000000" font-family="sans-serif" font-size="10" lengthAdjust="spacing" textLength="120" x="275" y="287.709">agentType = "Contractor"</text><rect fill="#FFC0CB" filter="url(#fhg401arts766)" height="77.4063" style="stroke:#A80036;stroke-width:1.5;" width="201" x="32.5" y="216.5"/><text fill="#000000" font-family="sans-serif" font-size="12" lengthAdjust="spacing" textLength="92" x="87" y="230.957">architectureWork</text><line style="stroke:#A80036;stroke-width:1.5;" x1="33.5" x2="232.5" y1="235.5938" y2="235.5938"/><text fill="#000000" font-family="sans-serif" font-size="10" lengthAdjust="spacing" textLength="142" x="38.5" y="249.9746">rdf:label = "Architecture Work"</text><text fill="#000000" font-family="sans-serif" font-size="10" lengthAdjust="spacing" textLength="89" x="38.5" y="262.5527">hourlyRate = "€65"</text><text fill="#000000" font-family="sans-serif" font-size="10" lengthAdjust="spacing" textLength="63" x="38.5" y="275.1309">duration = 90</text><text fill="#000000" font-family="sans-serif" font-size="10" lengthAdjust="spacing" textLength="189" x="38.5" y="287.709">startTime = "Thu 2022-04-14 10:00 AM"</text><path d="M32.5,74 L32.5,100.3516 A0,0 0 0 0 32.5,100.3516 L97.5,100.3516 L125.32,216.49 L105.5,100.3516 L165.5,100.3516 A0,0 0 0 0 165.5,100.3516 L165.5,84 L155.5,74 L32.5,74 A0,0 0 0 0 32.5,74 " fill="#FBFB77" filter="url(#fhg401arts766)" style="stroke:#A80036;stroke-width:1.0;"/><path d="M155.5,74 L155.5,84 L165.5,84 L155.5,74 " fill="#FBFB77" style="stroke:#A80036;stroke-width:1.0;"/><text fill="#000000" font-family="sans-serif" font-size="13" lengthAdjust="spacing" textLength="112" x="38.5" y="92.4951">Duration in minutes</text><rect fill="#FFC0CB" filter="url(#fhg401arts766)" height="89.9844" style="stroke:#A80036;stroke-width:1.5;" width="256" x="536" y="210"/><text fill="#000000" font-family="sans-serif" font-size="12" lengthAdjust="spacing" textLength="192" x="568" y="224.457">federatedTimesheetsCollaboration</text><line style="stroke:#A80036;stroke-width:1.5;" x1="537" x2="791" y1="229.0938" y2="229.0938"/><text fill="#000000" font-family="sans-serif" font-size="10" lengthAdjust="spacing" textLength="231" x="542" y="243.4746">rdf:label = "Federated Timesheets Collaboration"</text><text fill="#000000" font-family="sans-serif" font-size="10" lengthAdjust="spacing" textLength="244" x="542" y="256.0527">description = "Federated Timesheets Collaboration"</text><text fill="#000000" font-family="sans-serif" font-size="10" lengthAdjust="spacing" textLength="137" x="542" y="268.6309">startDate = "Thu 2022-03-01"</text><text fill="#000000" font-family="sans-serif" font-size="10" lengthAdjust="spacing" textLength="63" x="542" y="281.209">duration = 26</text><text fill="#000000" font-family="sans-serif" font-size="10" lengthAdjust="spacing" textLength="131" x="542" y="293.7871">milestones = "To be added"</text><path d="M735,74 L735,100.3516 A0,0 0 0 0 735,100.3516 L783.22,100.3516 L699.46,209.75 L791.22,100.3516 L859,100.3516 A0,0 0 0 0 859,100.3516 L859,84 L849,74 L735,74 A0,0 0 0 0 735,74 " fill="#FBFB77" filter="url(#fhg401arts766)" style="stroke:#A80036;stroke-width:1.0;"/><path d="M849,74 L849,84 L859,84 L849,74 " fill="#FBFB77" style="stroke:#A80036;stroke-width:1.0;"/><text fill="#000000" font-family="sans-serif" font-size="13" lengthAdjust="spacing" textLength="103" x="741" y="92.4951">Duration in weeks</text><!--MD5=[ba9f8606fba82ee587ef39f4d0f6f1d8]
link t000001 to angus--><path codeLine="29" d="M332.9,132.05 C336.73,156.53 341.48,186.86 345.29,211.14 " fill="none" id="t000001-to-angus" style="stroke:#A80036;stroke-width:1.0;"/><polygon fill="#A80036" points="346.08,216.23,348.6443,206.7208,345.309,211.2898,340.74,207.9545,346.08,216.23" style="stroke:#A80036;stroke-width:1.0;"/><text fill="#000000" font-family="sans-serif" font-size="13" lengthAdjust="spacing" textLength="61" x="340" y="176.4951">contributor</text><!--MD5=[b9d71ed4fe23431ba62123a41ac03d18]
link t000001 to aw--><path codeLine="41" d="M274.79,132.05 C245.61,157.14 209.29,188.38 180.71,212.96 " fill="none" id="t000001-to-aw" style="stroke:#A80036;stroke-width:1.0;"/><polygon fill="#A80036" points="176.91,216.23,186.3465,213.4099,180.7063,212.976,181.1401,207.3359,176.91,216.23" style="stroke:#A80036;stroke-width:1.0;"/><text fill="#000000" font-family="sans-serif" font-size="13" lengthAdjust="spacing" textLength="40" x="237" y="176.4951">activity</text><!--MD5=[8dc30f557fb028d8842d39be9c432908]
link t000001 to fedTimesheetsCollab--><path codeLine="55" d="M415.69,132.05 C463.15,155.36 521.4,183.97 569.56,207.62 " fill="none" id="t000001-to-fedTimesheetsCollab" style="stroke:#A80036;stroke-width:1.0;"/><polygon fill="#A80036" points="574.18,209.89,567.8707,202.3274,569.6937,207.6825,564.3387,209.5055,574.18,209.89" style="stroke:#A80036;stroke-width:1.0;"/><text fill="#000000" font-family="sans-serif" font-size="13" lengthAdjust="spacing" textLength="39" x="506" y="176.4951">project</text><!--MD5=[34d468813477472ae6782817374a95d3]
@startuml
'https://plantuml.com/object-diagram

skinparam object {
  BackgroundColor Pink
}

package timeld-data {

  object "timesheet000001" as t000001 {
    id = 000001
    description = "Week commencing 11th April 2022"
    purpose = "Cost Allocation"
    status = "Draft"
    version = "0.1"
  }
  note right of t000001
    version refers to timesheet
    revision; should be auto-
    incremented by timesheeting tool
  end note

  object angus {
    rdf:label = "Angus the Awesome"
    firstName = "Angus"
    lastName = "McAllister"
    agentType = "Contractor"
  }

  t000001 - -> angus : contributor

  object "architectureWork" as aw {
    rdf:label = "Architecture Work"
    hourlyRate = "€65"
    duration = 90
    startTime = "Thu 2022-04-14 10:00 AM"
}
  note top of aw
    Duration in minutes
  end note

  t000001 - -> aw : activity

  object "federatedTimesheetsCollaboration" as fedTimesheetsCollab {
    rdf:label = "Federated Timesheets Collaboration"
    description = "Federated Timesheets Collaboration"
    startDate = "Thu 2022-03-01"
    duration = 26
    milestones = "To be added"

  }
  note top of fedTimesheetsCollab
    Duration in weeks
  end note

  t000001 - -> fedTimesheetsCollab : project
}
@enduml

@startuml

skinparam object {
  BackgroundColor Pink
}

package timeld-data {

  object "timesheet000001" as t000001 {
    id = 000001
    description = "Week commencing 11th April 2022"
    purpose = "Cost Allocation"
    status = "Draft"
    version = "0.1"
  }
  note right of t000001
    version refers to timesheet
    revision; should be auto-
    incremented by timesheeting tool
  end note

  object angus {
    rdf:label = "Angus the Awesome"
    firstName = "Angus"
    lastName = "McAllister"
    agentType = "Contractor"
  }

  t000001 - -> angus : contributor

  object "architectureWork" as aw {
    rdf:label = "Architecture Work"
    hourlyRate = "€65"
    duration = 90
    startTime = "Thu 2022-04-14 10:00 AM"
}
  note top of aw
    Duration in minutes
  end note

  t000001 - -> aw : activity

  object "federatedTimesheetsCollaboration" as fedTimesheetsCollab {
    rdf:label = "Federated Timesheets Collaboration"
    description = "Federated Timesheets Collaboration"
    startDate = "Thu 2022-03-01"
    duration = 26
    milestones = "To be added"

  }
  note top of fedTimesheetsCollab
    Duration in weeks
  end note

  t000001 - -> fedTimesheetsCollab : project
}
@enduml

PlantUML version 1.2022.0(Tue Jan 11 16:16:42 GMT 2022)
(GPL source distribution)
Java Runtime: OpenJDK Runtime Environment
JVM: OpenJDK 64-Bit Server VM
Default Encoding: UTF-8
Language: en
Country: GB
--></g></svg>