<?xml version="1.0" encoding="UTF-8" standalone="no"?><svg xmlns="http://www.w3.org/2000/svg" xmlns:xlink="http://www.w3.org/1999/xlink" contentScriptType="application/ecmascript" contentStyleType="text/css" height="1215px" preserveAspectRatio="none" style="width:855px;height:1215px;background:#FFFFFF;" version="1.1" viewBox="0 0 855 1215" width="855px" zoomAndPan="magnify"><defs><filter height="300%" id="f1j0c1wlwv4o5k" width="300%" x="-1" y="-1"><feGaussianBlur result="blurOut" stdDeviation="2.0"/><feColorMatrix in="blurOut" result="blurOut2" type="matrix" values="0 0 0 0 0 0 0 0 0 0 0 0 0 0 0 0 0 0 .4 0"/><feOffset dx="4.0" dy="4.0" in="blurOut2" result="blurOut3"/><feBlend in="SourceGraphic" in2="blurOut3" mode="normal"/></filter></defs><g><!--MD5=[87082398342ff5d5d96b854a3cdd19e0]
cluster Account administration--><polygon fill="#FFFFFF" filter="url(#f1j0c1wlwv4o5k)" points="235,6,410,6,417,28.4883,838,28.4883,838,1208,235,1208,235,6" style="stroke:#000000;stroke-width:1.5;"/><line style="stroke:#000000;stroke-width:1.5;" x1="235" x2="417" y1="28.4883" y2="28.4883"/><text fill="#000000" font-family="sans-serif" font-size="14" font-weight="bold" lengthAdjust="spacing" textLength="169" x="239" y="21.5352">Account administration</text><path d="M264,54.5 L264,95.1211 L529,95.1211 L529,64.5 L519,54.5 L264,54.5 " fill="#FBFB77" filter="url(#f1j0c1wlwv4o5k)" style="stroke:#A80036;stroke-width:1.0;"/><path d="M519,54.5 L519,64.5 L529,64.5 L519,54.5 " fill="#FBFB77" style="stroke:#A80036;stroke-width:1.0;"/><text fill="#000000" font-family="sans-serif" font-size="13" lengthAdjust="spacing" textLength="122" x="270" y="72.0684">≪constraint≫ on all</text><text fill="#000000" font-family="sans-serif" font-size="13" lengthAdjust="spacing" textLength="244" x="270" y="87.3789">User must be account owner OR admin</text><ellipse cx="396.3393" cy="163.9679" fill="#FEFECE" filter="url(#f1j0c1wlwv4o5k)" rx="90.3393" ry="20.4679" style="stroke:#A80036;stroke-width:1.5;"/><text fill="#000000" font-family="sans-serif" font-size="14" lengthAdjust="spacing" textLength="142" x="325.3393" y="167.2589">[list | add | rm] email</text><path d="M642,41 L642,86.11 L451.48,147.67 L642,94.11 L642,96.9316 A0,0 0 0 0 642,96.9316 L783,96.9316 A0,0 0 0 0 783,96.9316 L783,51 L773,41 L642,41 A0,0 0 0 0 642,41 " fill="#FBFB77" filter="url(#f1j0c1wlwv4o5k)" style="stroke:#A80036;stroke-width:1.0;"/><path d="M773,41 L773,51 L783,51 L773,41 " fill="#FBFB77" style="stroke:#A80036;stroke-width:1.0;"/><text fill="#000000" font-family="sans-serif" font-size="13" lengthAdjust="spacing" textLength="83" x="648" y="58.5684">≪constraint≫</text><text fill="#000000" font-family="sans-serif" font-size="13" lengthAdjust="spacing" textLength="120" x="648" y="73.8789">add email: requires</text><text fill="#000000" font-family="sans-serif" font-size="13" lengthAdjust="spacing" textLength="115" x="648" y="89.1895">emailed activation</text><ellipse cx="396.334" cy="250.7668" fill="#FEFECE" filter="url(#f1j0c1wlwv4o5k)" rx="86.834" ry="19.7668" style="stroke:#A80036;stroke-width:1.5;"/><text fill="#000000" font-family="sans-serif" font-size="14" lengthAdjust="spacing" textLength="134" x="329.334" y="254.0578">[list | add | rm] org]</text><path d="M656,223 L656,247 L483.72,251 L656,255 L656,278.9316 A0,0 0 0 0 656,278.9316 L769,278.9316 A0,0 0 0 0 769,278.9316 L769,233 L759,223 L656,223 A0,0 0 0 0 656,223 " fill="#FBFB77" filter="url(#f1j0c1wlwv4o5k)" style="stroke:#A80036;stroke-width:1.0;"/><path d="M759,223 L759,233 L769,233 L759,223 " fill="#FBFB77" style="stroke:#A80036;stroke-width:1.0;"/><text fill="#000000" font-family="sans-serif" font-size="13" lengthAdjust="spacing" textLength="83" x="662" y="240.5684">≪constraint≫</text><text fill="#000000" font-family="sans-serif" font-size="13" lengthAdjust="spacing" textLength="77" x="662" y="255.8789">add org: org</text><text fill="#000000" font-family="sans-serif" font-size="13" lengthAdjust="spacing" textLength="92" x="662" y="271.1895">must not exist</text><path d="M626.5,132 L626.5,179.9316 L451.48,235.36 L626.5,187.9316 L626.5,187.9316 A0,0 0 0 0 626.5,187.9316 L798.5,187.9316 A0,0 0 0 0 798.5,187.9316 L798.5,142 L788.5,132 L626.5,132 A0,0 0 0 0 626.5,132 " fill="#FBFB77" filter="url(#f1j0c1wlwv4o5k)" style="stroke:#A80036;stroke-width:1.0;"/><path d="M788.5,132 L788.5,142 L798.5,142 L788.5,132 " fill="#FBFB77" style="stroke:#A80036;stroke-width:1.0;"/><text fill="#000000" font-family="sans-serif" font-size="13" lengthAdjust="spacing" textLength="83" x="632.5" y="149.5684">≪constraint≫</text><text fill="#000000" font-family="sans-serif" font-size="13" lengthAdjust="spacing" textLength="148" x="632.5" y="164.8789">remove org: cascade all</text><text fill="#000000" font-family="sans-serif" font-size="13" lengthAdjust="spacing" textLength="151" x="632.5" y="180.1895">timesheets and projects</text><ellipse cx="396.6409" cy="436.0282" fill="#FEFECE" filter="url(#f1j0c1wlwv4o5k)" rx="105.6409" ry="23.5282" style="stroke:#A80036;stroke-width:1.5;"/><text fill="#000000" font-family="sans-serif" font-size="14" lengthAdjust="spacing" textLength="176" x="308.6409" y="439.3192">[list | add | rm] org admin</text><path d="M655.5,314 L655.5,354.79 L460.29,417.2 L655.5,362.79 L655.5,369.9316 A0,0 0 0 0 655.5,369.9316 L769.5,369.9316 A0,0 0 0 0 769.5,369.9316 L769.5,324 L759.5,314 L655.5,314 A0,0 0 0 0 655.5,314 " fill="#FBFB77" filter="url(#f1j0c1wlwv4o5k)" style="stroke:#A80036;stroke-width:1.0;"/><path d="M759.5,314 L759.5,324 L769.5,324 L759.5,314 " fill="#FBFB77" style="stroke:#A80036;stroke-width:1.0;"/><text fill="#000000" font-family="sans-serif" font-size="13" lengthAdjust="spacing" textLength="83" x="661.5" y="331.5684">≪constraint≫</text><text fill="#000000" font-family="sans-serif" font-size="13" lengthAdjust="spacing" textLength="93" x="661.5" y="346.8789">cannot remove</text><text fill="#000000" font-family="sans-serif" font-size="13" lengthAdjust="spacing" textLength="89" x="661.5" y="362.1895">User as admin</text><ellipse cx="396.4977" cy="587.7995" fill="#FEFECE" filter="url(#f1j0c1wlwv4o5k)" rx="136.9977" ry="29.7995" style="stroke:#A80036;stroke-width:1.5;"/><text fill="#000000" font-family="sans-serif" font-size="14" lengthAdjust="spacing" textLength="243" x="274.9977" y="591.0906">[list | add | rm] [project | timesheet]</text><path d="M635.5,694 L635.5,749.9316 L789.5,749.9316 L789.5,704 L779.5,694 L635.5,694 " fill="#FBFB77" filter="url(#f1j0c1wlwv4o5k)" style="stroke:#A80036;stroke-width:1.0;"/><path d="M779.5,694 L779.5,704 L789.5,704 L779.5,694 " fill="#FBFB77" style="stroke:#A80036;stroke-width:1.0;"/><text fill="#000000" font-family="sans-serif" font-size="13" lengthAdjust="spacing" textLength="61" x="641.5" y="711.5684">≪trigger≫</text><text fill="#000000" font-family="sans-serif" font-size="13" lengthAdjust="spacing" textLength="118" x="641.5" y="726.8789">add timesheet: init</text><text fill="#000000" font-family="sans-serif" font-size="13" lengthAdjust="spacing" textLength="133" x="641.5" y="742.1895">ts domain as genesis</text><path d="M642.5,603 L642.5,617.51 L513.08,603.83 L642.5,625.51 L642.5,658.9316 A0,0 0 0 0 642.5,658.9316 L782.5,658.9316 A0,0 0 0 0 782.5,658.9316 L782.5,613 L772.5,603 L642.5,603 A0,0 0 0 0 642.5,603 " fill="#FBFB77" filter="url(#f1j0c1wlwv4o5k)" style="stroke:#A80036;stroke-width:1.0;"/><path d="M772.5,603 L772.5,613 L782.5,613 L772.5,603 " fill="#FBFB77" style="stroke:#A80036;stroke-width:1.0;"/><text fill="#000000" font-family="sans-serif" font-size="13" lengthAdjust="spacing" textLength="83" x="648.5" y="620.5684">≪constraint≫</text><text fill="#000000" font-family="sans-serif" font-size="13" lengthAdjust="spacing" textLength="99" x="648.5" y="635.8789">add: owned @id</text><text fill="#000000" font-family="sans-serif" font-size="13" lengthAdjust="spacing" textLength="119" x="648.5" y="651.1895">must have account</text><path d="M628.5,496.5 L628.5,542.82 L503.37,569.12 L628.5,550.82 L628.5,567.7422 A0,0 0 0 0 628.5,567.7422 L796.5,567.7422 A0,0 0 0 0 796.5,567.7422 L796.5,506.5 L786.5,496.5 L628.5,496.5 A0,0 0 0 0 628.5,496.5 " fill="#FBFB77" filter="url(#f1j0c1wlwv4o5k)" style="stroke:#A80036;stroke-width:1.0;"/><path d="M786.5,496.5 L786.5,506.5 L796.5,506.5 L786.5,496.5 " fill="#FBFB77" style="stroke:#A80036;stroke-width:1.0;"/><text fill="#000000" font-family="sans-serif" font-size="13" lengthAdjust="spacing" textLength="83" x="634.5" y="514.0684">≪constraint≫</text><text fill="#000000" font-family="sans-serif" font-size="13" lengthAdjust="spacing" textLength="56" x="634.5" y="529.3789">owned is</text><text fill="#000000" font-family="sans-serif" font-size="13" font-style="italic" lengthAdjust="spacing" textLength="79" x="694.5" y="529.3789">composition</text><text fill="#000000" font-family="sans-serif" font-size="13" lengthAdjust="spacing" textLength="4" x="773.5" y="529.3789">,</text><text fill="#000000" font-family="sans-serif" font-size="13" lengthAdjust="spacing" textLength="147" x="634.5" y="544.6895">cascade create &amp; delete</text><text fill="#000000" font-family="sans-serif" font-size="13" lengthAdjust="spacing" textLength="124" x="634.5" y="560">of account property</text><path d="M608.5,405 L608.5,460.9316 L816.5,460.9316 L816.5,415 L806.5,405 L608.5,405 " fill="#FBFB77" filter="url(#f1j0c1wlwv4o5k)" style="stroke:#A80036;stroke-width:1.0;"/><path d="M806.5,405 L806.5,415 L816.5,415 L806.5,405 " fill="#FBFB77" style="stroke:#A80036;stroke-width:1.0;"/><text fill="#000000" font-family="sans-serif" font-size="13" lengthAdjust="spacing" textLength="83" x="614.5" y="422.5684">≪constraint≫</text><text fill="#000000" font-family="sans-serif" font-size="13" lengthAdjust="spacing" textLength="187" x="614.5" y="437.8789">timesheet provider is account</text><text fill="#000000" font-family="sans-serif" font-size="13" lengthAdjust="spacing" textLength="152" x="614.5" y="453.1895">project client is account</text><ellipse cx="396.2638" cy="719.7528" fill="#FEFECE" filter="url(#f1j0c1wlwv4o5k)" rx="141.7638" ry="30.7528" style="stroke:#A80036;stroke-width:1.5;"/><text fill="#000000" font-family="sans-serif" font-size="14" lengthAdjust="spacing" textLength="253" x="269.7638" y="723.0438">[list | add | rm] timesheet project link</text><path d="M644.5,785.5 L644.5,785.5 L485.8,744.18 L644.5,793.5 L644.5,826.1211 A0,0 0 0 0 644.5,826.1211 L780.5,826.1211 A0,0 0 0 0 780.5,826.1211 L780.5,795.5 L770.5,785.5 L644.5,785.5 A0,0 0 0 0 644.5,785.5 " fill="#FBFB77" filter="url(#f1j0c1wlwv4o5k)" style="stroke:#A80036;stroke-width:1.0;"/><path d="M770.5,785.5 L770.5,795.5 L780.5,795.5 L770.5,785.5 " fill="#FBFB77" style="stroke:#A80036;stroke-width:1.0;"/><text fill="#000000" font-family="sans-serif" font-size="13" lengthAdjust="spacing" textLength="83" x="650.5" y="803.0684">≪constraint≫</text><text fill="#000000" font-family="sans-serif" font-size="13" lengthAdjust="spacing" textLength="115" x="650.5" y="818.3789">project must exist</text><ellipse cx="396.5882" cy="926.0176" fill="#FEFECE" filter="url(#f1j0c1wlwv4o5k)" rx="145.5882" ry="31.5176" style="stroke:#A80036;stroke-width:1.5;"/><text fill="#000000" font-family="sans-serif" font-size="14" lengthAdjust="spacing" textLength="261" x="266.0882" y="929.3087">[list | add | rm] ts or project connector</text><path d="M603,1044.5 L603,1085.1211 L822,1085.1211 L822,1054.5 L812,1044.5 L603,1044.5 " fill="#FBFB77" filter="url(#f1j0c1wlwv4o5k)" style="stroke:#A80036;stroke-width:1.0;"/><path d="M812,1044.5 L812,1054.5 L822,1054.5 L812,1044.5 " fill="#FBFB77" style="stroke:#A80036;stroke-width:1.0;"/><text fill="#000000" font-family="sans-serif" font-size="13" lengthAdjust="spacing" textLength="83" x="609" y="1062.0684">≪constraint≫</text><text fill="#000000" font-family="sans-serif" font-size="13" lengthAdjust="spacing" textLength="198" x="609" y="1077.3789">timesheet or project must exist</text><path d="M624.5,953 L624.5,961.71 L510.42,945.78 L624.5,969.71 L624.5,1008.9316 A0,0 0 0 0 624.5,1008.9316 L800.5,1008.9316 A0,0 0 0 0 800.5,1008.9316 L800.5,963 L790.5,953 L624.5,953 A0,0 0 0 0 624.5,953 " fill="#FBFB77" filter="url(#f1j0c1wlwv4o5k)" style="stroke:#A80036;stroke-width:1.0;"/><path d="M790.5,953 L790.5,963 L800.5,963 L790.5,953 " fill="#FBFB77" style="stroke:#A80036;stroke-width:1.0;"/><text fill="#000000" font-family="sans-serif" font-size="13" lengthAdjust="spacing" textLength="83" x="630.5" y="970.5684">≪constraint≫</text><text fill="#000000" font-family="sans-serif" font-size="13" lengthAdjust="spacing" textLength="145" x="630.5" y="985.8789">add: connector module</text><text fill="#000000" font-family="sans-serif" font-size="13" lengthAdjust="spacing" textLength="155" x="630.5" y="1001.1895">must not exist for target</text><path d="M620.5,862 L620.5,896.46 L525.67,911.31 L620.5,904.46 L620.5,917.9316 A0,0 0 0 0 620.5,917.9316 L804.5,917.9316 A0,0 0 0 0 804.5,917.9316 L804.5,872 L794.5,862 L620.5,862 A0,0 0 0 0 620.5,862 " fill="#FBFB77" filter="url(#f1j0c1wlwv4o5k)" style="stroke:#A80036;stroke-width:1.0;"/><path d="M794.5,862 L794.5,872 L804.5,872 L794.5,862 " fill="#FBFB77" style="stroke:#A80036;stroke-width:1.0;"/><text fill="#000000" font-family="sans-serif" font-size="13" lengthAdjust="spacing" textLength="61" x="626.5" y="879.5684">≪trigger≫</text><text fill="#000000" font-family="sans-serif" font-size="13" lengthAdjust="spacing" textLength="163" x="626.5" y="894.8789">garbage collect connector</text><text fill="#000000" font-family="sans-serif" font-size="13" lengthAdjust="spacing" textLength="71" x="626.5" y="910.1895">stored data</text><ellipse cx="396.3196" cy="1100.1639" fill="#FEFECE" filter="url(#f1j0c1wlwv4o5k)" rx="98.8196" ry="22.1639" style="stroke:#A80036;stroke-width:1.5;"/><text fill="#000000" font-family="sans-serif" font-size="14" lengthAdjust="spacing" textLength="161" x="315.8196" y="1103.4549">revoke all device access</text><path d="M628,1120.5 L628,1137.07 L474.31,1113.7 L628,1145.07 L628,1191.7422 A0,0 0 0 0 628,1191.7422 L797,1191.7422 A0,0 0 0 0 797,1191.7422 L797,1130.5 L787,1120.5 L628,1120.5 A0,0 0 0 0 628,1120.5 " fill="#FBFB77" filter="url(#f1j0c1wlwv4o5k)" style="stroke:#A80036;stroke-width:1.0;"/><path d="M787,1120.5 L787,1130.5 L797,1130.5 L787,1120.5 " fill="#FBFB77" style="stroke:#A80036;stroke-width:1.0;"/><text fill="#000000" font-family="sans-serif" font-size="13" lengthAdjust="spacing" textLength="134" x="634" y="1138.0684">saves having to track</text><text fill="#000000" font-family="sans-serif" font-size="13" lengthAdjust="spacing" textLength="128" x="634" y="1153.3789">devices individually.</text><text fill="#000000" font-family="sans-serif" font-size="13" lengthAdjust="spacing" textLength="148" x="634" y="1168.6895">Followed by re-activate</text><text fill="#000000" font-family="sans-serif" font-size="13" lengthAdjust="spacing" textLength="106" x="634" y="1184">of current device</text><!--MD5=[fee662a292a0353a69bd162820bae93b]
entity User--><ellipse cx="21.5" cy="557" fill="#FEFECE" filter="url(#f1j0c1wlwv4o5k)" rx="8" ry="8" style="stroke:#A80036;stroke-width:1.5;"/><path d="M21.5,565 L21.5,592 M8.5,573 L34.5,573 M21.5,592 L8.5,607 M21.5,592 L34.5,607 " fill="none" filter="url(#f1j0c1wlwv4o5k)" style="stroke:#A80036;stroke-width:1.5;"/><text fill="#000000" font-family="sans-serif" font-size="14" lengthAdjust="spacing" textLength="31" x="6" y="626.0352">User</text><!--MD5=[0af43a27ea7d8c7c70a340bcf4789f34]
link User to userAdminEmail--><path d="M25.45,547.34 C30.79,482.57 43.71,359.54 67,323 C122.4,236.08 240.04,195.42 318.45,177.33 " fill="none" id="User-to-userAdminEmail" style="stroke:#A80036;stroke-width:1.0;"/><polygon fill="#A80036" points="323.56,176.17,313.9012,174.2445,318.6821,177.2682,315.6584,182.0491,323.56,176.17" style="stroke:#A80036;stroke-width:1.0;"/><text fill="#000000" font-family="sans-serif" font-size="13" lengthAdjust="spacing" textLength="97" x="94.5" y="208.5684">if User Account</text><!--MD5=[7c4e8a6294297ff40244c57d595087aa]
link User to userAdminOrg--><path d="M31.87,547.49 C38.74,524.21 49.91,495.43 67,474 C145.7,375.33 279.88,303.72 349.91,270.94 " fill="none" id="User-to-userAdminOrg" style="stroke:#A80036;stroke-width:1.0;"/><polygon fill="#A80036" points="354.84,268.65,344.9922,268.7956,350.3015,270.748,348.349,276.0572,354.84,268.65" style="stroke:#A80036;stroke-width:1.0;"/><text fill="#000000" font-family="sans-serif" font-size="13" lengthAdjust="spacing" textLength="97" x="94.5" y="344.5684">if User Account</text><!--MD5=[cff2b2305a54a52442aac09815baeff1]
link User to orgAdmin--><path d="M37.01,578.72 C45.55,573.46 56.67,566.96 67,562 C156.4,519.09 264.53,479.93 331.68,457.02 " fill="none" id="User-to-orgAdmin" style="stroke:#A80036;stroke-width:1.0;"/><polygon fill="#A80036" points="336.44,455.4,326.6311,454.5132,331.7067,457.011,329.2088,462.0866,336.44,455.4" style="stroke:#A80036;stroke-width:1.0;"/><text fill="#000000" font-family="sans-serif" font-size="13" lengthAdjust="spacing" textLength="150" x="68" y="495.5684">if Organisation Account</text><!--MD5=[98906cbddb6f364f9cfc9ce6cd6edf22]
link User to ownedAdmin--><path d="M37.12,588 C73.27,588 169.99,588 253.85,588 " fill="none" id="User-to-ownedAdmin" style="stroke:#A80036;stroke-width:1.0;"/><polygon fill="#A80036" points="259.1,588,250.1,584,254.1,588,250.1,592,259.1,588" style="stroke:#A80036;stroke-width:1.0;"/><!--MD5=[9a5efc573280a1e4c2254b648aee7ae8]
link ownedAdmin to GMN25--><path d="M459.98,614.82 C500.69,632.29 554.98,655.54 603,676 C616.65,681.81 631.27,688.03 645.21,693.94 " fill="none" id="ownedAdmin-GMN25" style="stroke:#A80036;stroke-width:1.0;stroke-dasharray:7.0,7.0;"/><!--MD5=[fe052d8b540c46d5b9132ade6d94f1ca]
link ownedAdmin to GMN34--><path d="M447.13,560.12 C488.37,537.33 548.85,504.78 603,479 C615.75,472.93 629.5,466.79 642.8,461.06 " fill="none" id="ownedAdmin-GMN34" style="stroke:#A80036;stroke-width:1.0;stroke-dasharray:7.0,7.0;"/><!--MD5=[569a3ea65b6b2dbb90f755b559debcf2]
link User to [list | add | rm] timesheet project link--><path d="M37.12,593.17 C82.84,609.35 225.45,659.82 316.38,692 " fill="none" id="User-to-[list | add | rm] timesheet project link" style="stroke:#A80036;stroke-width:1.0;"/><polygon fill="#A80036" points="321.22,693.71,314.074,686.9325,316.5074,692.0392,311.4007,694.4726,321.22,693.71" style="stroke:#A80036;stroke-width:1.0;"/><!--MD5=[a2ff6f8aef08d5724856e27ff6a18220]
link User to connectors--><path d="M37.01,617.35 C44.83,631.63 55.27,648.56 67,662 C151.63,758.95 275.04,847.3 343.99,893.1 " fill="none" id="User-to-connectors" style="stroke:#A80036;stroke-width:1.0;"/><polygon fill="#A80036" points="348.45,896.06,343.1672,887.7478,344.2854,893.2931,338.7401,894.4113,348.45,896.06" style="stroke:#A80036;stroke-width:1.0;"/><!--MD5=[f66a0043f0bb972a5be0591cea85bffd]
link connectors to GMN44--><path d="M453.01,955.03 C493.94,975.94 551.27,1004.19 603,1026 C618.31,1032.45 635.1,1038.82 650.79,1044.48 " fill="none" id="connectors-GMN44" style="stroke:#A80036;stroke-width:1.0;stroke-dasharray:7.0,7.0;"/><!--MD5=[1b6fd5439fea7a63f90296fd4123bb53]
link User to revoke all device access--><path d="M23.72,628.55 C26.63,675.09 36.17,752.5 67,811 C133.88,937.91 280.86,1034.85 353.36,1076.98 " fill="none" id="User-to-revoke all device access" style="stroke:#A80036;stroke-width:1.0;"/><polygon fill="#A80036" points="358.03,1079.67,352.2257,1071.7133,353.6967,1077.1755,348.2345,1078.6465,358.03,1079.67" style="stroke:#A80036;stroke-width:1.0;"/><!--MD5=[24557d8668423f12b4a867331c3280de]
@startuml
'https://plantuml.com/use-case-diagram
left to right direction

actor User
package "Account administration" {
  note "≪constraint≫ on all\nUser must be account owner OR admin" as appliesToAll

  usecase userAdminEmail as ([list | add | rm] email)
  User - -> userAdminEmail: if User Account
  note right of userAdminEmail
    ' TODO
    ≪constraint≫
    add email: requires
    emailed activation
  end note

  usecase userAdminOrg as ([list | add | rm] org])
  User - -> userAdminOrg: if User Account
  note right of userAdminOrg
    ≪constraint≫
    add org: org
    must not exist
  end note

  note right of userAdminOrg
    ≪constraint≫
    remove org: cascade all
    timesheets and projects
  end note
  usecase orgAdmin as ([list | add | rm] org admin)
  User - -> orgAdmin: if Organisation Account
  note right of orgAdmin
    ≪constraint≫
    cannot remove
    User as admin
  end note

  usecase ownedAdmin as ([list | add | rm] [project | timesheet])
  User - -> ownedAdmin
  note right of ownedAdmin
    ≪trigger≫
    add timesheet: init
    ts domain as genesis
  end note

  note right of ownedAdmin
    ≪constraint≫
    add: owned @id
    must have account
  end note

  note right of ownedAdmin
    ≪constraint≫
    owned is //composition//,
    cascade create & delete
    of account property
  end note

  note right of ownedAdmin
    ≪constraint≫
    timesheet provider is account
    project client is account
  end note

  User - -> ([list | add | rm] timesheet project link)
  note right
    ≪constraint≫
    project must exist
  end note

  usecase connectors as ([list | add | rm] ts or project connector)
  User - -> connectors
  note right of connectors
    ≪constraint≫
    timesheet or project must exist
  end note

  note right of connectors
    ≪constraint≫
    add: connector module
    must not exist for target
  end note

  note right of connectors
    ≪trigger≫
    garbage collect connector
    stored data
  end note

  ' TODO
  User - -> (revoke all device access)
  note right
    saves having to track
    devices individually.
    Followed by re-activate
    of current device
  end note
}

@enduml

@startuml
left to right direction

actor User
package "Account administration" {
  note "≪constraint≫ on all\nUser must be account owner OR admin" as appliesToAll

  usecase userAdminEmail as ([list | add | rm] email)
  User - -> userAdminEmail: if User Account
  note right of userAdminEmail
    ≪constraint≫
    add email: requires
    emailed activation
  end note

  usecase userAdminOrg as ([list | add | rm] org])
  User - -> userAdminOrg: if User Account
  note right of userAdminOrg
    ≪constraint≫
    add org: org
    must not exist
  end note

  note right of userAdminOrg
    ≪constraint≫
    remove org: cascade all
    timesheets and projects
  end note
  usecase orgAdmin as ([list | add | rm] org admin)
  User - -> orgAdmin: if Organisation Account
  note right of orgAdmin
    ≪constraint≫
    cannot remove
    User as admin
  end note

  usecase ownedAdmin as ([list | add | rm] [project | timesheet])
  User - -> ownedAdmin
  note right of ownedAdmin
    ≪trigger≫
    add timesheet: init
    ts domain as genesis
  end note

  note right of ownedAdmin
    ≪constraint≫
    add: owned @id
    must have account
  end note

  note right of ownedAdmin
    ≪constraint≫
    owned is //composition//,
    cascade create & delete
    of account property
  end note

  note right of ownedAdmin
    ≪constraint≫
    timesheet provider is account
    project client is account
  end note

  User - -> ([list | add | rm] timesheet project link)
  note right
    ≪constraint≫
    project must exist
  end note

  usecase connectors as ([list | add | rm] ts or project connector)
  User - -> connectors
  note right of connectors
    ≪constraint≫
    timesheet or project must exist
  end note

  note right of connectors
    ≪constraint≫
    add: connector module
    must not exist for target
  end note

  note right of connectors
    ≪trigger≫
    garbage collect connector
    stored data
  end note

  User - -> (revoke all device access)
  note right
    saves having to track
    devices individually.
    Followed by re-activate
    of current device
  end note
}

@enduml

PlantUML version 1.2021.10(Mon Aug 30 14:43:48 BST 2021)
(GPL source distribution)
Java Runtime: OpenJDK Runtime Environment
JVM: OpenJDK 64-Bit Server VM
Default Encoding: UTF-8
Language: en
Country: GB
--></g></svg>