<?xml version="1.0" encoding="UTF-8" standalone="no"?><svg xmlns="http://www.w3.org/2000/svg" xmlns:xlink="http://www.w3.org/1999/xlink" contentScriptType="application/ecmascript" contentStyleType="text/css" height="732px" preserveAspectRatio="none" style="width:475px;height:732px;background:#FFFFFF;" version="1.1" viewBox="0 0 475 732" width="475px" zoomAndPan="magnify"><defs><filter height="300%" id="fr7rkw43j0qup" width="300%" x="-1" y="-1"><feGaussianBlur result="blurOut" stdDeviation="2.0"/><feColorMatrix in="blurOut" result="blurOut2" type="matrix" values="0 0 0 0 0 0 0 0 0 0 0 0 0 0 0 0 0 0 .4 0"/><feOffset dx="4.0" dy="4.0" in="blurOut2" result="blurOut3"/><feBlend in="SourceGraphic" in2="blurOut3" mode="normal"/></filter></defs><g><!--MD5=[e39e801fea952dcd5e3ce7a6d35cb68a]
cluster Account administration session--><polygon fill="#FFFFFF" filter="url(#fr7rkw43j0qup)" points="212,6,447,6,454,28.4883,458,28.4883,458,725,212,725,212,6" style="stroke:#000000;stroke-width:1.5;"/><line style="stroke:#000000;stroke-width:1.5;" x1="212" x2="454" y1="28.4883" y2="28.4883"/><text fill="#000000" font-family="sans-serif" font-size="14" font-weight="bold" lengthAdjust="spacing" textLength="229" x="216" y="21.5352">Account administration session</text><ellipse cx="335.2394" cy="60.1479" fill="#FEFECE" filter="url(#fr7rkw43j0qup)" rx="81.2394" ry="18.6479" style="stroke:#A80036;stroke-width:1.5;"/><text fill="#000000" font-family="sans-serif" font-size="14" lengthAdjust="spacing" textLength="121" x="274.7394" y="63.4389">view organisation</text><ellipse cx="335.2247" cy="134.9449" fill="#FEFECE" filter="url(#fr7rkw43j0qup)" rx="95.2247" ry="21.4449" style="stroke:#A80036;stroke-width:1.5;"/><text fill="#000000" font-family="sans-serif" font-size="14" lengthAdjust="spacing" textLength="153" x="258.7247" y="138.236">add [admin | member]</text><ellipse cx="335.1075" cy="212.8215" fill="#FEFECE" filter="url(#fr7rkw43j0qup)" rx="92.1075" ry="20.8215" style="stroke:#A80036;stroke-width:1.5;"/><text fill="#000000" font-family="sans-serif" font-size="14" lengthAdjust="spacing" textLength="146" x="262.1075" y="216.1125">rm [admin | member]</text><ellipse cx="335.1409" cy="293.0282" fill="#FEFECE" filter="url(#fr7rkw43j0qup)" rx="105.6409" ry="23.5282" style="stroke:#A80036;stroke-width:1.5;"/><text fill="#000000" font-family="sans-serif" font-size="14" lengthAdjust="spacing" textLength="176" x="247.1409" y="296.3192">list [projects | timesheets]</text><ellipse cx="334.8124" cy="375.1625" fill="#FEFECE" filter="url(#fr7rkw43j0qup)" rx="103.8124" ry="23.1625" style="stroke:#A80036;stroke-width:1.5;"/><text fill="#000000" font-family="sans-serif" font-size="14" lengthAdjust="spacing" textLength="172" x="248.8124" y="378.4535">view [project | timesheet]</text><ellipse cx="334.8196" cy="455.1639" fill="#FEFECE" filter="url(#fr7rkw43j0qup)" rx="98.8196" ry="22.1639" style="stroke:#A80036;stroke-width:1.5;"/><text fill="#000000" font-family="sans-serif" font-size="14" lengthAdjust="spacing" textLength="161" x="254.3196" y="458.4549">rm [project | timesheet]</text><ellipse cx="335.199" cy="528.9398" fill="#FEFECE" filter="url(#fr7rkw43j0qup)" rx="70.199" ry="16.4398" style="stroke:#A80036;stroke-width:1.5;"/><text fill="#000000" font-family="sans-serif" font-size="14" lengthAdjust="spacing" textLength="94" x="286.5115" y="532.6647">create project</text><ellipse cx="335.0363" cy="603.2073" fill="#FEFECE" filter="url(#fr7rkw43j0qup)" rx="101.5363" ry="22.7073" style="stroke:#A80036;stroke-width:1.5;"/><text fill="#000000" font-family="sans-serif" font-size="14" lengthAdjust="spacing" textLength="167" x="251.5363" y="606.4983">add timesheet to project</text><ellipse cx="335.0163" cy="684.8033" fill="#FEFECE" filter="url(#fr7rkw43j0qup)" rx="107.0163" ry="23.8033" style="stroke:#A80036;stroke-width:1.5;"/><text fill="#000000" font-family="sans-serif" font-size="14" lengthAdjust="spacing" textLength="179" x="245.5163" y="688.0943">rm timesheet from project</text><!--MD5=[8fc3522a43f8c7199df5e09e5bb0188e]
entity user--><ellipse cx="87" cy="335.5" fill="#FEFECE" filter="url(#fr7rkw43j0qup)" rx="8" ry="8" style="stroke:#A80036;stroke-width:1.5;"/><path d="M87,343.5 L87,370.5 M74,351.5 L100,351.5 M87,370.5 L74,385.5 M87,370.5 L100,385.5 " fill="none" filter="url(#fr7rkw43j0qup)" style="stroke:#A80036;stroke-width:1.5;"/><text fill="#000000" font-family="sans-serif" font-size="14" lengthAdjust="spacing" textLength="155" x="6" y="404.5352">User account owner or</text><text fill="#000000" font-family="sans-serif" font-size="14" lengthAdjust="spacing" textLength="162" x="6" y="421.0234">Organisation acc admin</text><!--MD5=[416c7ac81806474fe5ffb66a5f739c65]
link user to view organisation--><path d="M95.07,325.79 C106.67,263.29 135.69,156.34 204,96 C218.6,83.1 237.44,74.79 256.22,69.44 " fill="none" id="user-to-view organisation" style="stroke:#A80036;stroke-width:1.0;"/><polygon fill="#A80036" points="261.51,68.01,251.7754,66.5141,256.6855,69.3232,253.8765,74.2333,261.51,68.01" style="stroke:#A80036;stroke-width:1.0;"/><!--MD5=[e5276060f98c2cb73192af5e19053eee]
link user to add [admin | member]--><path d="M104.37,325.68 C122.01,279.96 154.4,213.25 204,174 C218.1,162.84 235.35,154.87 252.62,149.17 " fill="none" id="user-to-add [admin | member]" style="stroke:#A80036;stroke-width:1.0;"/><polygon fill="#A80036" points="257.49,147.63,247.7017,146.5399,252.7242,149.1425,250.1216,154.1651,257.49,147.63" style="stroke:#A80036;stroke-width:1.0;"/><!--MD5=[bb66fa01cc2e915f834a790559a70149]
link user to rm [admin | member]--><path d="M124.02,325.87 C144.85,300.58 173.03,271.12 204,252 C220.91,241.56 240.79,233.76 259.85,228.01 " fill="none" id="user-to-rm [admin | member]" style="stroke:#A80036;stroke-width:1.0;"/><polygon fill="#A80036" points="264.68,226.59,254.92,225.27,259.88,227.99,257.16,232.95,264.68,226.59" style="stroke:#A80036;stroke-width:1.0;"/><!--MD5=[ca43c6fc758e6206240191841d8a6cbd]
link user to list [projects | timesheets]--><path d="M168.06,346.3 C180.08,342.11 192.35,337.89 204,334 C224.57,327.12 247.08,319.92 267.49,313.49 " fill="none" id="user-to-list [projects | timesheets]" style="stroke:#A80036;stroke-width:1.0;"/><polygon fill="#A80036" points="272.36,311.97,262.5777,310.8265,267.5861,313.4565,264.9561,318.4648,272.36,311.97" style="stroke:#A80036;stroke-width:1.0;"/><!--MD5=[6978175d1a0e4dc4f2bfa8d540864205]
link user to view [project | timesheet]--><path d="M168.21,375 C186.41,375 206.03,375 225.2,375 " fill="none" id="user-to-view [project | timesheet]" style="stroke:#A80036;stroke-width:1.0;"/><polygon fill="#A80036" points="230.59,375,221.59,371,225.59,375,221.59,379,230.59,375" style="stroke:#A80036;stroke-width:1.0;"/><!--MD5=[e0a20ed3e6519163bad2c3da459275fe]
link user to rm [project | timesheet]--><path d="M168.07,403 C180.09,407.09 192.35,411.2 204,415 C225.51,422.02 249.13,429.38 270.27,435.86 " fill="none" id="user-to-rm [project | timesheet]" style="stroke:#A80036;stroke-width:1.0;"/><polygon fill="#A80036" points="275.3,437.4,267.8553,430.952,270.5168,435.9436,265.5251,438.6051,275.3,437.4" style="stroke:#A80036;stroke-width:1.0;"/><!--MD5=[48fe83bd3371e32f7cba0d8036a4d5f8]
link user to create project--><path d="M125.12,424.04 C145.87,448.33 173.64,476.19 204,494 C224.15,505.82 248.38,513.75 270.43,519.02 " fill="none" id="user-to-create project" style="stroke:#A80036;stroke-width:1.0;"/><polygon fill="#A80036" points="275.4,520.17,267.535,514.242,270.529,519.0415,265.7294,522.0355,275.4,520.17" style="stroke:#A80036;stroke-width:1.0;"/><!--MD5=[a7c360015da6f53625f9b791bd833944]
link user to add timesheet to project--><path d="M106.68,424.38 C125.21,466.96 157.58,527.11 204,563 C217.63,573.54 234.05,581.32 250.56,587.06 " fill="none" id="user-to-add timesheet to project" style="stroke:#A80036;stroke-width:1.0;"/><polygon fill="#A80036" points="255.68,588.77,248.4369,582.0964,250.9438,587.1674,245.8727,589.6743,255.68,588.77" style="stroke:#A80036;stroke-width:1.0;"/><!--MD5=[091123cd6d4d081c2b9b758d5a56030d]
link user to rm timesheet from project--><path d="M96.53,424.21 C109.45,484.13 139.64,584.54 204,643 C216.09,653.98 231.09,662.1 246.55,668.09 " fill="none" id="user-to-rm timesheet from project" style="stroke:#A80036;stroke-width:1.0;"/><polygon fill="#A80036" points="251.36,669.88,244.3375,662.9746,246.6784,668.1244,241.5285,670.4652,251.36,669.88" style="stroke:#A80036;stroke-width:1.0;"/><!--MD5=[6fbe212baa12470cc3b6e94c370965d1]
@startuml
'https://plantuml.com/use-case-diagram
left to right direction

actor "User account owner or\nOrganisation acc admin" as user
package "Account administration session" {
  user - -> (view organisation)
  user - -> (add [admin | member])
  user - -> (rm [admin | member])
  user - -> (list [projects | timesheets])
  user - -> (view [project | timesheet])
  user - -> (rm [project | timesheet])
  user - -> (create project)
  user - -> (add timesheet to project)
  user - -> (rm timesheet from project)
}

@enduml

@startuml
left to right direction

actor "User account owner or\nOrganisation acc admin" as user
package "Account administration session" {
  user - -> (view organisation)
  user - -> (add [admin | member])
  user - -> (rm [admin | member])
  user - -> (list [projects | timesheets])
  user - -> (view [project | timesheet])
  user - -> (rm [project | timesheet])
  user - -> (create project)
  user - -> (add timesheet to project)
  user - -> (rm timesheet from project)
}

@enduml

PlantUML version 1.2021.10(Mon Aug 30 14:43:48 BST 2021)
(GPL source distribution)
Java Runtime: OpenJDK Runtime Environment
JVM: OpenJDK 64-Bit Server VM
Default Encoding: UTF-8
Language: en
Country: GB
--></g></svg>