<?xml version="1.0" encoding="UTF-8" standalone="no"?><svg xmlns="http://www.w3.org/2000/svg" xmlns:xlink="http://www.w3.org/1999/xlink" contentScriptType="application/ecmascript" contentStyleType="text/css" height="479px" preserveAspectRatio="none" style="width:925px;height:479px;background:#FFFFFF;" version="1.1" viewBox="0 0 925 479" width="925px" zoomAndPan="magnify"><defs><filter height="300%" id="f1bgywb0dumbpm" width="300%" x="-1" y="-1"><feGaussianBlur result="blurOut" stdDeviation="2.0"/><feColorMatrix in="blurOut" result="blurOut2" type="matrix" values="0 0 0 0 0 0 0 0 0 0 0 0 0 0 0 0 0 0 .4 0"/><feOffset dx="4.0" dy="4.0" in="blurOut2" result="blurOut3"/><feBlend in="SourceGraphic" in2="blurOut3" mode="normal"/></filter></defs><g><!--MD5=[87082398342ff5d5d96b854a3cdd19e0]
cluster Account administration--><polygon fill="#FFFFFF" filter="url(#f1bgywb0dumbpm)" points="366,6,541,6,548,28.4883,908,28.4883,908,472,366,472,366,6" style="stroke:#000000;stroke-width:1.5;"/><line style="stroke:#000000;stroke-width:1.5;" x1="366" x2="548" y1="28.4883" y2="28.4883"/><text fill="#000000" font-family="sans-serif" font-size="14" font-weight="bold" lengthAdjust="spacing" textLength="169" x="370" y="21.5352">Account administration</text><ellipse cx="531.422" cy="73.7844" fill="#FEFECE" filter="url(#f1bgywb0dumbpm)" rx="149.422" ry="32.2844" style="stroke:#A80036;stroke-width:1.5;"/><text fill="#000000" font-family="sans-serif" font-size="14" lengthAdjust="spacing" textLength="269" x="396.922" y="77.0754">[✔︎list | add | rm] [✔︎email | device | org]</text><path d="M742,46 L742,70 L681.31,74 L742,78 L742,101.9316 A0,0 0 0 0 742,101.9316 L892,101.9316 A0,0 0 0 0 892,101.9316 L892,56 L882,46 L742,46 A0,0 0 0 0 742,46 " fill="#FBFB77" filter="url(#f1bgywb0dumbpm)" style="stroke:#A80036;stroke-width:1.0;"/><path d="M882,46 L882,56 L892,56 L882,46 " fill="#FBFB77" style="stroke:#A80036;stroke-width:1.0;"/><text fill="#000000" font-family="sans-serif" font-size="13" lengthAdjust="spacing" textLength="83" x="748" y="63.5684">≪constraint≫</text><text fill="#000000" font-family="sans-serif" font-size="13" lengthAdjust="spacing" textLength="116" x="748" y="78.8789">add email requires</text><text fill="#000000" font-family="sans-serif" font-size="13" lengthAdjust="spacing" textLength="129" x="748" y="94.1895">emailed access code</text><ellipse cx="531.6409" cy="165.0282" fill="#FEFECE" filter="url(#f1bgywb0dumbpm)" rx="105.6409" ry="23.5282" style="stroke:#A80036;stroke-width:1.5;"/><text fill="#000000" font-family="sans-serif" font-size="14" lengthAdjust="spacing" textLength="176" x="443.6409" y="168.3192">[list | add | rm] org admin</text><path d="M760,137 L760,161 L637.26,165 L760,169 L760,192.9316 A0,0 0 0 0 760,192.9316 L874,192.9316 A0,0 0 0 0 874,192.9316 L874,147 L864,137 L760,137 A0,0 0 0 0 760,137 " fill="#FBFB77" filter="url(#f1bgywb0dumbpm)" style="stroke:#A80036;stroke-width:1.0;"/><path d="M864,137 L864,147 L874,147 L864,137 " fill="#FBFB77" style="stroke:#A80036;stroke-width:1.0;"/><text fill="#000000" font-family="sans-serif" font-size="13" lengthAdjust="spacing" textLength="83" x="766" y="154.5684">≪constraint≫</text><text fill="#000000" font-family="sans-serif" font-size="13" lengthAdjust="spacing" textLength="93" x="766" y="169.8789">cannot remove</text><text fill="#000000" font-family="sans-serif" font-size="13" lengthAdjust="spacing" textLength="66" x="766" y="185.1895">last admin</text><ellipse cx="531.4977" cy="253.7995" fill="#FEFECE" filter="url(#f1bgywb0dumbpm)" rx="136.9977" ry="29.7995" style="stroke:#A80036;stroke-width:1.5;"/><text fill="#000000" font-family="sans-serif" font-size="14" lengthAdjust="spacing" textLength="243" x="409.9977" y="257.0906">[list | add | rm] [project | timesheet]</text><ellipse cx="531.3124" cy="342.1625" fill="#FEFECE" filter="url(#f1bgywb0dumbpm)" rx="103.8124" ry="23.1625" style="stroke:#A80036;stroke-width:1.5;"/><text fill="#000000" font-family="sans-serif" font-size="14" lengthAdjust="spacing" textLength="172" x="445.3124" y="345.4535">view [project | timesheet]</text><ellipse cx="531.6062" cy="428.1212" fill="#FEFECE" filter="url(#f1bgywb0dumbpm)" rx="126.1062" ry="27.6212" style="stroke:#A80036;stroke-width:1.5;"/><text fill="#000000" font-family="sans-serif" font-size="14" lengthAdjust="spacing" textLength="220" x="421.6062" y="431.4123">[add | rm] timesheet project link</text><!--MD5=[8fc3522a43f8c7199df5e09e5bb0188e]
entity user--><ellipse cx="87" cy="214.5" fill="#FEFECE" filter="url(#f1bgywb0dumbpm)" rx="8" ry="8" style="stroke:#A80036;stroke-width:1.5;"/><path d="M87,222.5 L87,249.5 M74,230.5 L100,230.5 M87,249.5 L74,264.5 M87,249.5 L100,264.5 " fill="none" filter="url(#f1bgywb0dumbpm)" style="stroke:#A80036;stroke-width:1.5;"/><text fill="#000000" font-family="sans-serif" font-size="14" lengthAdjust="spacing" textLength="155" x="6" y="283.5352">User account owner or</text><text fill="#000000" font-family="sans-serif" font-size="14" lengthAdjust="spacing" textLength="162" x="6" y="300.0234">Organisation acc admin</text><!--MD5=[5495f13e10c18599a1b4451007327475]
link user to [✔︎list | add | rm] [✔︎email | device | org]--><path d="M148.26,204.79 C163.84,193.62 181.02,182.54 198,174 C267.42,139.1 351.22,113.99 417.33,97.67 " fill="none" id="user-to-[✔︎list | add | rm] [✔︎email | device | org]" style="stroke:#A80036;stroke-width:1.0;"/><polygon fill="#A80036" points="422.46,96.41,412.7633,94.6854,417.6059,97.6092,414.6821,102.4519,422.46,96.41" style="stroke:#A80036;stroke-width:1.0;"/><text fill="#000000" font-family="sans-serif" font-size="13" lengthAdjust="spacing" textLength="97" x="225.5" y="113.5684">if User Account</text><!--MD5=[311839b4e61ff8420d67a73034b1b576]
link user to [list | add | rm] org admin--><path d="M168.11,234.62 C178.16,232.32 188.31,230.06 198,228 C280.89,210.36 375.93,192.6 443.12,180.45 " fill="none" id="user-to-[list | add | rm] org admin" style="stroke:#A80036;stroke-width:1.0;"/><polygon fill="#A80036" points="448.31,179.51,438.7432,177.1698,443.3893,180.3969,440.1622,185.0429,448.31,179.51" style="stroke:#A80036;stroke-width:1.0;"/><text fill="#000000" font-family="sans-serif" font-size="13" lengthAdjust="spacing" textLength="150" x="199" y="195.5684">if Organisation Account</text><!--MD5=[180efce334c5850169796120dca379a2]
link user to [list | add | rm] [project | timesheet]--><path d="M168.13,254 C229.55,254 315.85,254 388.83,254 " fill="none" id="user-to-[list | add | rm] [project | timesheet]" style="stroke:#A80036;stroke-width:1.0;"/><polygon fill="#A80036" points="394.06,254,385.06,250,389.06,254,385.06,258,394.06,254" style="stroke:#A80036;stroke-width:1.0;"/><!--MD5=[6978175d1a0e4dc4f2bfa8d540864205]
link user to view [project | timesheet]--><path d="M168.13,269.94 C247.46,285.71 368.32,309.75 448.34,325.66 " fill="none" id="user-to-view [project | timesheet]" style="stroke:#A80036;stroke-width:1.0;"/><polygon fill="#A80036" points="453.56,326.7,445.5097,321.0262,448.6555,325.7277,443.954,328.8734,453.56,326.7" style="stroke:#A80036;stroke-width:1.0;"/><!--MD5=[fd51056321ecd7d47963a49895df125f]
link user to [add | rm] timesheet project link--><path d="M168.03,298.83 C178.05,304.09 188.21,309.26 198,314 C267.55,347.65 284.93,356.87 358,382 C384.35,391.06 413.47,399.43 440.16,406.48 " fill="none" id="user-to-[add | rm] timesheet project link" style="stroke:#A80036;stroke-width:1.0;"/><polygon fill="#A80036" points="445.11,407.78,437.4252,401.6201,440.2748,406.5068,435.3881,409.3564,445.11,407.78" style="stroke:#A80036;stroke-width:1.0;"/><!--MD5=[f0ef8ec33fe954256d48ae35e9e7521f]
@startuml
'https://plantuml.com/use-case-diagram
left to right direction

actor "User account owner or\nOrganisation acc admin" as user
package "Account administration" {
  user - -> ([✔︎list | add | rm] [✔︎email | device | org]): if User Account
  note right
    ≪constraint≫
    add email requires
    emailed access code
  end note
  user - -> ([list | add | rm] org admin): if Organisation Account
  note right
    ≪constraint≫
    cannot remove
    last admin
  end note
  user - -> ([list | add | rm] [project | timesheet])
  user - -> (view [project | timesheet])
  user - -> ([add | rm] timesheet project link)
}

@enduml

@startuml
left to right direction

actor "User account owner or\nOrganisation acc admin" as user
package "Account administration" {
  user - -> ([✔︎list | add | rm] [✔︎email | device | org]): if User Account
  note right
    ≪constraint≫
    add email requires
    emailed access code
  end note
  user - -> ([list | add | rm] org admin): if Organisation Account
  note right
    ≪constraint≫
    cannot remove
    last admin
  end note
  user - -> ([list | add | rm] [project | timesheet])
  user - -> (view [project | timesheet])
  user - -> ([add | rm] timesheet project link)
}

@enduml

PlantUML version 1.2021.10(Mon Aug 30 14:43:48 BST 2021)
(GPL source distribution)
Java Runtime: OpenJDK Runtime Environment
JVM: OpenJDK 64-Bit Server VM
Default Encoding: UTF-8
Language: en
Country: GB
--></g></svg>