<?xml version="1.0" encoding="UTF-8" standalone="no"?><svg xmlns="http://www.w3.org/2000/svg" xmlns:xlink="http://www.w3.org/1999/xlink" contentScriptType="application/ecmascript" contentStyleType="text/css" height="1215px" preserveAspectRatio="none" style="width:862px;height:1215px;background:#FFFFFF;" version="1.1" viewBox="0 0 862 1215" width="862px" zoomAndPan="magnify"><defs><filter height="300%" id="f13yrkzxlix37u" width="300%" x="-1" y="-1"><feGaussianBlur result="blurOut" stdDeviation="2.0"/><feColorMatrix in="blurOut" result="blurOut2" type="matrix" values="0 0 0 0 0 0 0 0 0 0 0 0 0 0 0 0 0 0 .4 0"/><feOffset dx="4.0" dy="4.0" in="blurOut2" result="blurOut3"/><feBlend in="SourceGraphic" in2="blurOut3" mode="normal"/></filter></defs><g><!--MD5=[87082398342ff5d5d96b854a3cdd19e0]
cluster Account administration--><polygon fill="#FFFFFF" filter="url(#f13yrkzxlix37u)" points="235,6,410,6,417,28.4883,845,28.4883,845,1208,235,1208,235,6" style="stroke:#000000;stroke-width:1.5;"/><line style="stroke:#000000;stroke-width:1.5;" x1="235" x2="417" y1="28.4883" y2="28.4883"/><text fill="#000000" font-family="sans-serif" font-size="14" font-weight="bold" lengthAdjust="spacing" textLength="169" x="239" y="21.5352">Account administration</text><path d="M267.5,54.5 L267.5,95.1211 L532.5,95.1211 L532.5,64.5 L522.5,54.5 L267.5,54.5 " fill="#FBFB77" filter="url(#f13yrkzxlix37u)" style="stroke:#A80036;stroke-width:1.0;"/><path d="M522.5,54.5 L522.5,64.5 L532.5,64.5 L522.5,54.5 " fill="#FBFB77" style="stroke:#A80036;stroke-width:1.0;"/><text fill="#000000" font-family="sans-serif" font-size="13" lengthAdjust="spacing" textLength="122" x="273.5" y="72.0684">≪constraint≫ on all</text><text fill="#000000" font-family="sans-serif" font-size="13" lengthAdjust="spacing" textLength="244" x="273.5" y="87.3789">User must be account owner OR admin</text><ellipse cx="399.8393" cy="163.9679" fill="#FEFECE" filter="url(#f13yrkzxlix37u)" rx="90.3393" ry="20.4679" style="stroke:#A80036;stroke-width:1.5;"/><text fill="#000000" font-family="sans-serif" font-size="14" lengthAdjust="spacing" textLength="142" x="328.8393" y="167.2589">[list | add | rm] email</text><path d="M649,41 L649,85.85 L455.58,147.67 L649,93.85 L649,96.9316 A0,0 0 0 0 649,96.9316 L790,96.9316 A0,0 0 0 0 790,96.9316 L790,51 L780,41 L649,41 A0,0 0 0 0 649,41 " fill="#FBFB77" filter="url(#f13yrkzxlix37u)" style="stroke:#A80036;stroke-width:1.0;"/><path d="M780,41 L780,51 L790,51 L780,41 " fill="#FBFB77" style="stroke:#A80036;stroke-width:1.0;"/><text fill="#000000" font-family="sans-serif" font-size="13" lengthAdjust="spacing" textLength="83" x="655" y="58.5684">≪constraint≫</text><text fill="#000000" font-family="sans-serif" font-size="13" lengthAdjust="spacing" textLength="120" x="655" y="73.8789">add email: requires</text><text fill="#000000" font-family="sans-serif" font-size="13" lengthAdjust="spacing" textLength="115" x="655" y="89.1895">emailed activation</text><ellipse cx="399.834" cy="250.7668" fill="#FEFECE" filter="url(#f13yrkzxlix37u)" rx="86.834" ry="19.7668" style="stroke:#A80036;stroke-width:1.5;"/><text fill="#000000" font-family="sans-serif" font-size="14" lengthAdjust="spacing" textLength="134" x="332.834" y="254.0578">[list | add | rm] org]</text><path d="M663,223 L663,247 L487.34,251 L663,255 L663,278.9316 A0,0 0 0 0 663,278.9316 L776,278.9316 A0,0 0 0 0 776,278.9316 L776,233 L766,223 L663,223 A0,0 0 0 0 663,223 " fill="#FBFB77" filter="url(#f13yrkzxlix37u)" style="stroke:#A80036;stroke-width:1.0;"/><path d="M766,223 L766,233 L776,233 L766,223 " fill="#FBFB77" style="stroke:#A80036;stroke-width:1.0;"/><text fill="#000000" font-family="sans-serif" font-size="13" lengthAdjust="spacing" textLength="83" x="669" y="240.5684">≪constraint≫</text><text fill="#000000" font-family="sans-serif" font-size="13" lengthAdjust="spacing" textLength="77" x="669" y="255.8789">add org: org</text><text fill="#000000" font-family="sans-serif" font-size="13" lengthAdjust="spacing" textLength="92" x="669" y="271.1895">must not exist</text><path d="M633.5,132 L633.5,179.9316 L455.22,235.46 L633.5,187.9316 L633.5,187.9316 A0,0 0 0 0 633.5,187.9316 L805.5,187.9316 A0,0 0 0 0 805.5,187.9316 L805.5,142 L795.5,132 L633.5,132 A0,0 0 0 0 633.5,132 " fill="#FBFB77" filter="url(#f13yrkzxlix37u)" style="stroke:#A80036;stroke-width:1.0;"/><path d="M795.5,132 L795.5,142 L805.5,142 L795.5,132 " fill="#FBFB77" style="stroke:#A80036;stroke-width:1.0;"/><text fill="#000000" font-family="sans-serif" font-size="13" lengthAdjust="spacing" textLength="83" x="639.5" y="149.5684">≪constraint≫</text><text fill="#000000" font-family="sans-serif" font-size="13" lengthAdjust="spacing" textLength="148" x="639.5" y="164.8789">remove org: cascade all</text><text fill="#000000" font-family="sans-serif" font-size="13" lengthAdjust="spacing" textLength="151" x="639.5" y="180.1895">timesheets and projects</text><ellipse cx="400.1409" cy="436.0282" fill="#FEFECE" filter="url(#f13yrkzxlix37u)" rx="105.6409" ry="23.5282" style="stroke:#A80036;stroke-width:1.5;"/><text fill="#000000" font-family="sans-serif" font-size="14" lengthAdjust="spacing" textLength="176" x="312.1409" y="439.3192">[list | add | rm] org admin</text><path d="M662.5,314 L662.5,354.6 L464.11,417.32 L662.5,362.6 L662.5,369.9316 A0,0 0 0 0 662.5,369.9316 L776.5,369.9316 A0,0 0 0 0 776.5,369.9316 L776.5,324 L766.5,314 L662.5,314 A0,0 0 0 0 662.5,314 " fill="#FBFB77" filter="url(#f13yrkzxlix37u)" style="stroke:#A80036;stroke-width:1.0;"/><path d="M766.5,314 L766.5,324 L776.5,324 L766.5,314 " fill="#FBFB77" style="stroke:#A80036;stroke-width:1.0;"/><text fill="#000000" font-family="sans-serif" font-size="13" lengthAdjust="spacing" textLength="83" x="668.5" y="331.5684">≪constraint≫</text><text fill="#000000" font-family="sans-serif" font-size="13" lengthAdjust="spacing" textLength="93" x="668.5" y="346.8789">cannot remove</text><text fill="#000000" font-family="sans-serif" font-size="13" lengthAdjust="spacing" textLength="89" x="668.5" y="362.1895">User as admin</text><ellipse cx="399.9977" cy="587.7995" fill="#FEFECE" filter="url(#f13yrkzxlix37u)" rx="136.9977" ry="29.7995" style="stroke:#A80036;stroke-width:1.5;"/><text fill="#000000" font-family="sans-serif" font-size="14" lengthAdjust="spacing" textLength="243" x="278.4977" y="591.0906">[list | add | rm] [project | timesheet]</text><path d="M642.5,694 L642.5,749.9316 A0,0 0 0 0 642.5,749.9316 L796.5,749.9316 A0,0 0 0 0 796.5,749.9316 L796.5,704 L786.5,694 L655.95,694 L464.11,614.63 L647.95,694 L642.5,694 A0,0 0 0 0 642.5,694 " fill="#FBFB77" filter="url(#f13yrkzxlix37u)" style="stroke:#A80036;stroke-width:1.0;"/><path d="M786.5,694 L786.5,704 L796.5,704 L786.5,694 " fill="#FBFB77" style="stroke:#A80036;stroke-width:1.0;"/><text fill="#000000" font-family="sans-serif" font-size="13" lengthAdjust="spacing" textLength="61" x="648.5" y="711.5684">≪trigger≫</text><text fill="#000000" font-family="sans-serif" font-size="13" lengthAdjust="spacing" textLength="118" x="648.5" y="726.8789">add timesheet: init</text><text fill="#000000" font-family="sans-serif" font-size="13" lengthAdjust="spacing" textLength="133" x="648.5" y="742.1895">ts domain as genesis</text><path d="M649.5,603 L649.5,617.65 L516.97,603.71 L649.5,625.65 L649.5,658.9316 A0,0 0 0 0 649.5,658.9316 L789.5,658.9316 A0,0 0 0 0 789.5,658.9316 L789.5,613 L779.5,603 L649.5,603 A0,0 0 0 0 649.5,603 " fill="#FBFB77" filter="url(#f13yrkzxlix37u)" style="stroke:#A80036;stroke-width:1.0;"/><path d="M779.5,603 L779.5,613 L789.5,613 L779.5,603 " fill="#FBFB77" style="stroke:#A80036;stroke-width:1.0;"/><text fill="#000000" font-family="sans-serif" font-size="13" lengthAdjust="spacing" textLength="83" x="655.5" y="620.5684">≪constraint≫</text><text fill="#000000" font-family="sans-serif" font-size="13" lengthAdjust="spacing" textLength="99" x="655.5" y="635.8789">add: owned @id</text><text fill="#000000" font-family="sans-serif" font-size="13" lengthAdjust="spacing" textLength="119" x="655.5" y="651.1895">must have account</text><path d="M635.5,496.5 L635.5,542.68 L507.16,569.27 L635.5,550.68 L635.5,567.7422 A0,0 0 0 0 635.5,567.7422 L803.5,567.7422 A0,0 0 0 0 803.5,567.7422 L803.5,506.5 L793.5,496.5 L635.5,496.5 A0,0 0 0 0 635.5,496.5 " fill="#FBFB77" filter="url(#f13yrkzxlix37u)" style="stroke:#A80036;stroke-width:1.0;"/><path d="M793.5,496.5 L793.5,506.5 L803.5,506.5 L793.5,496.5 " fill="#FBFB77" style="stroke:#A80036;stroke-width:1.0;"/><text fill="#000000" font-family="sans-serif" font-size="13" lengthAdjust="spacing" textLength="83" x="641.5" y="514.0684">≪constraint≫</text><text fill="#000000" font-family="sans-serif" font-size="13" lengthAdjust="spacing" textLength="56" x="641.5" y="529.3789">owned is</text><text fill="#000000" font-family="sans-serif" font-size="13" font-style="italic" lengthAdjust="spacing" textLength="79" x="701.5" y="529.3789">composition</text><text fill="#000000" font-family="sans-serif" font-size="13" lengthAdjust="spacing" textLength="4" x="780.5" y="529.3789">,</text><text fill="#000000" font-family="sans-serif" font-size="13" lengthAdjust="spacing" textLength="147" x="641.5" y="544.6895">cascade create &amp; delete</text><text fill="#000000" font-family="sans-serif" font-size="13" lengthAdjust="spacing" textLength="124" x="641.5" y="560">of account property</text><path d="M615.5,405 L615.5,460.9316 L823.5,460.9316 L823.5,415 L813.5,405 L615.5,405 " fill="#FBFB77" filter="url(#f13yrkzxlix37u)" style="stroke:#A80036;stroke-width:1.0;"/><path d="M813.5,405 L813.5,415 L823.5,415 L813.5,405 " fill="#FBFB77" style="stroke:#A80036;stroke-width:1.0;"/><text fill="#000000" font-family="sans-serif" font-size="13" lengthAdjust="spacing" textLength="83" x="621.5" y="422.5684">≪constraint≫</text><text fill="#000000" font-family="sans-serif" font-size="13" lengthAdjust="spacing" textLength="187" x="621.5" y="437.8789">timesheet provider is account</text><text fill="#000000" font-family="sans-serif" font-size="13" lengthAdjust="spacing" textLength="152" x="621.5" y="453.1895">project client is account</text><ellipse cx="399.7638" cy="719.7528" fill="#FEFECE" filter="url(#f13yrkzxlix37u)" rx="141.7638" ry="30.7528" style="stroke:#A80036;stroke-width:1.5;"/><text fill="#000000" font-family="sans-serif" font-size="14" lengthAdjust="spacing" textLength="253" x="273.2638" y="723.0438">[list | add | rm] timesheet project link</text><path d="M651.5,785.5 L651.5,785.5 L489.86,744.07 L651.5,793.5 L651.5,826.1211 A0,0 0 0 0 651.5,826.1211 L787.5,826.1211 A0,0 0 0 0 787.5,826.1211 L787.5,795.5 L777.5,785.5 L651.5,785.5 A0,0 0 0 0 651.5,785.5 " fill="#FBFB77" filter="url(#f13yrkzxlix37u)" style="stroke:#A80036;stroke-width:1.0;"/><path d="M777.5,785.5 L777.5,795.5 L787.5,795.5 L777.5,785.5 " fill="#FBFB77" style="stroke:#A80036;stroke-width:1.0;"/><text fill="#000000" font-family="sans-serif" font-size="13" lengthAdjust="spacing" textLength="83" x="657.5" y="803.0684">≪constraint≫</text><text fill="#000000" font-family="sans-serif" font-size="13" lengthAdjust="spacing" textLength="115" x="657.5" y="818.3789">project must exist</text><ellipse cx="399.9423" cy="926.1885" fill="#FEFECE" filter="url(#f13yrkzxlix37u)" rx="148.9423" ry="32.1885" style="stroke:#A80036;stroke-width:1.5;"/><text fill="#000000" font-family="sans-serif" font-size="14" lengthAdjust="spacing" textLength="268" x="265.9423" y="929.4795">[list | add | rm] ts or project integration</text><path d="M610,1044.5 L610,1085.1211 L829,1085.1211 L829,1054.5 L819,1044.5 L610,1044.5 " fill="#FBFB77" filter="url(#f13yrkzxlix37u)" style="stroke:#A80036;stroke-width:1.0;"/><path d="M819,1044.5 L819,1054.5 L829,1054.5 L819,1044.5 " fill="#FBFB77" style="stroke:#A80036;stroke-width:1.0;"/><text fill="#000000" font-family="sans-serif" font-size="13" lengthAdjust="spacing" textLength="83" x="616" y="1062.0684">≪constraint≫</text><text fill="#000000" font-family="sans-serif" font-size="13" lengthAdjust="spacing" textLength="198" x="616" y="1077.3789">timesheet or project must exist</text><path d="M631.5,953 L631.5,961.92 L516.52,946.01 L631.5,969.92 L631.5,1008.9316 A0,0 0 0 0 631.5,1008.9316 L807.5,1008.9316 A0,0 0 0 0 807.5,1008.9316 L807.5,963 L797.5,953 L631.5,953 A0,0 0 0 0 631.5,953 " fill="#FBFB77" filter="url(#f13yrkzxlix37u)" style="stroke:#A80036;stroke-width:1.0;"/><path d="M797.5,953 L797.5,963 L807.5,963 L797.5,953 " fill="#FBFB77" style="stroke:#A80036;stroke-width:1.0;"/><text fill="#000000" font-family="sans-serif" font-size="13" lengthAdjust="spacing" textLength="83" x="637.5" y="970.5684">≪constraint≫</text><text fill="#000000" font-family="sans-serif" font-size="13" lengthAdjust="spacing" textLength="151" x="637.5" y="985.8789">add: integration module</text><text fill="#000000" font-family="sans-serif" font-size="13" lengthAdjust="spacing" textLength="155" x="637.5" y="1001.1895">must not exist for target</text><path d="M624.5,862 L624.5,896.66 L532.43,911.1 L624.5,904.66 L624.5,917.9316 A0,0 0 0 0 624.5,917.9316 L814.5,917.9316 A0,0 0 0 0 814.5,917.9316 L814.5,872 L804.5,862 L624.5,862 A0,0 0 0 0 624.5,862 " fill="#FBFB77" filter="url(#f13yrkzxlix37u)" style="stroke:#A80036;stroke-width:1.0;"/><path d="M804.5,862 L804.5,872 L814.5,872 L804.5,862 " fill="#FBFB77" style="stroke:#A80036;stroke-width:1.0;"/><text fill="#000000" font-family="sans-serif" font-size="13" lengthAdjust="spacing" textLength="61" x="630.5" y="879.5684">≪trigger≫</text><text fill="#000000" font-family="sans-serif" font-size="13" lengthAdjust="spacing" textLength="169" x="630.5" y="894.8789">garbage collect integration</text><text fill="#000000" font-family="sans-serif" font-size="13" lengthAdjust="spacing" textLength="71" x="630.5" y="910.1895">stored data</text><ellipse cx="399.8196" cy="1100.1639" fill="#FEFECE" filter="url(#f13yrkzxlix37u)" rx="98.8196" ry="22.1639" style="stroke:#A80036;stroke-width:1.5;"/><text fill="#000000" font-family="sans-serif" font-size="14" lengthAdjust="spacing" textLength="161" x="319.3196" y="1103.4549">revoke all device access</text><path d="M635,1120.5 L635,1137.23 L478.26,1113.63 L635,1145.23 L635,1191.7422 A0,0 0 0 0 635,1191.7422 L804,1191.7422 A0,0 0 0 0 804,1191.7422 L804,1130.5 L794,1120.5 L635,1120.5 A0,0 0 0 0 635,1120.5 " fill="#FBFB77" filter="url(#f13yrkzxlix37u)" style="stroke:#A80036;stroke-width:1.0;"/><path d="M794,1120.5 L794,1130.5 L804,1130.5 L794,1120.5 " fill="#FBFB77" style="stroke:#A80036;stroke-width:1.0;"/><text fill="#000000" font-family="sans-serif" font-size="13" lengthAdjust="spacing" textLength="134" x="641" y="1138.0684">saves having to track</text><text fill="#000000" font-family="sans-serif" font-size="13" lengthAdjust="spacing" textLength="128" x="641" y="1153.3789">devices individually.</text><text fill="#000000" font-family="sans-serif" font-size="13" lengthAdjust="spacing" textLength="148" x="641" y="1168.6895">Followed by re-activate</text><text fill="#000000" font-family="sans-serif" font-size="13" lengthAdjust="spacing" textLength="106" x="641" y="1184">of current device</text><!--MD5=[fee662a292a0353a69bd162820bae93b]
entity User--><ellipse cx="21.5" cy="557" fill="#FEFECE" filter="url(#f13yrkzxlix37u)" rx="8" ry="8" style="stroke:#A80036;stroke-width:1.5;"/><path d="M21.5,565 L21.5,592 M8.5,573 L34.5,573 M21.5,592 L8.5,607 M21.5,592 L34.5,607 " fill="none" filter="url(#f13yrkzxlix37u)" style="stroke:#A80036;stroke-width:1.5;"/><text fill="#000000" font-family="sans-serif" font-size="14" lengthAdjust="spacing" textLength="31" x="6" y="626.0352">User</text><!--MD5=[0af43a27ea7d8c7c70a340bcf4789f34]
link User to userAdminEmail--><path d="M25.51,547.24 C30.91,482.66 43.9,360.4 67,324 C122.87,235.99 242.1,195.2 321.41,177.17 " fill="none" id="User-to-userAdminEmail" style="stroke:#A80036;stroke-width:1.0;"/><polygon fill="#A80036" points="326.57,176.02,316.9154,174.0736,321.6897,177.1077,318.6557,181.882,326.57,176.02" style="stroke:#A80036;stroke-width:1.0;"/><text fill="#000000" font-family="sans-serif" font-size="13" lengthAdjust="spacing" textLength="97" x="94.5" y="208.5684">if User Account</text><!--MD5=[7c4e8a6294297ff40244c57d595087aa]
link User to userAdminOrg--><path d="M32.51,547.24 C39.48,524.81 50.54,497.47 67,477 C147.38,377.04 283.67,304.04 354.02,270.87 " fill="none" id="User-to-userAdminOrg" style="stroke:#A80036;stroke-width:1.0;"/><polygon fill="#A80036" points="358.56,268.74,348.7128,268.9229,354.0294,270.8552,352.0972,276.1718,358.56,268.74" style="stroke:#A80036;stroke-width:1.0;"/><text fill="#000000" font-family="sans-serif" font-size="13" lengthAdjust="spacing" textLength="97" x="94.5" y="345.5684">if User Account</text><!--MD5=[cff2b2305a54a52442aac09815baeff1]
link User to orgAdmin--><path d="M37.4,578.46 C45.89,573.24 56.83,566.86 67,562 C157.31,518.85 266.6,479.75 334.48,456.92 " fill="none" id="User-to-orgAdmin" style="stroke:#A80036;stroke-width:1.0;"/><polygon fill="#A80036" points="339.29,455.31,329.4861,454.3702,334.548,456.8954,332.0228,461.9574,339.29,455.31" style="stroke:#A80036;stroke-width:1.0;"/><text fill="#000000" font-family="sans-serif" font-size="13" lengthAdjust="spacing" textLength="150" x="68" y="498.5684">if Organisation Account</text><!--MD5=[98906cbddb6f364f9cfc9ce6cd6edf22]
link User to ownedAdmin--><path d="M37.26,588 C73.98,588 172.64,588 257.67,588 " fill="none" id="User-to-ownedAdmin" style="stroke:#A80036;stroke-width:1.0;"/><polygon fill="#A80036" points="262.73,588,253.73,584,257.73,588,253.73,592,262.73,588" style="stroke:#A80036;stroke-width:1.0;"/><!--MD5=[fe052d8b540c46d5b9132ade6d94f1ca]
link ownedAdmin to GMN34--><path d="M451.54,560.2 C493.52,537.46 555.04,504.93 610,479 C622.86,472.93 636.73,466.77 650.12,461.01 " fill="none" id="ownedAdmin-GMN34" style="stroke:#A80036;stroke-width:1.0;stroke-dasharray:7.0,7.0;"/><!--MD5=[569a3ea65b6b2dbb90f755b559debcf2]
link User to [list | add | rm] timesheet project link--><path d="M37.26,593.17 C83.41,609.35 227.35,659.82 319.14,692 " fill="none" id="User-to-[list | add | rm] timesheet project link" style="stroke:#A80036;stroke-width:1.0;"/><polygon fill="#A80036" points="324.02,693.71,316.8558,686.9517,319.3029,692.0519,314.2028,694.499,324.02,693.71" style="stroke:#A80036;stroke-width:1.0;"/><!--MD5=[4f088bdc88b8a2986aae4bc969c402a4]
link User to integrations--><path d="M37.18,617.74 C44.97,631.94 55.33,648.7 67,662 C152.07,758.95 276.15,846.82 346.03,892.65 " fill="none" id="User-to-integrations" style="stroke:#A80036;stroke-width:1.0;"/><polygon fill="#A80036" points="350.56,895.61,345.2246,887.3315,346.3779,892.8695,340.8399,894.0228,350.56,895.61" style="stroke:#A80036;stroke-width:1.0;"/><!--MD5=[b4f2d533a1dc06cf0ea9ed3696a0e69d]
link integrations to GMN44--><path d="M458.84,955.62 C500.4,976.42 558.04,1004.3 610,1026 C625.33,1032.4 642.13,1038.75 657.82,1044.41 " fill="none" id="integrations-GMN44" style="stroke:#A80036;stroke-width:1.0;stroke-dasharray:7.0,7.0;"/><!--MD5=[1b6fd5439fea7a63f90296fd4123bb53]
link User to revoke all device access--><path d="M24.33,628.8 C27.81,673.94 37.87,747.73 67,804 C134.3,934.01 284.01,1033.8 357.15,1076.82 " fill="none" id="User-to-revoke all device access" style="stroke:#A80036;stroke-width:1.0;"/><polygon fill="#A80036" points="361.86,1079.57,356.0982,1071.5824,357.5401,1077.0524,352.0701,1078.4943,361.86,1079.57" style="stroke:#A80036;stroke-width:1.0;"/><!--MD5=[73ee90dfd9ed2f2b69672342bdce6c91]
@startuml
'https://plantuml.com/use-case-diagram
left to right direction

actor User
package "Account administration" {
  note "≪constraint≫ on all\nUser must be account owner OR admin" as appliesToAll

  usecase userAdminEmail as ([list | add | rm] email)
  User - -> userAdminEmail: if User Account
  note right of userAdminEmail
    ' TODO
    ≪constraint≫
    add email: requires
    emailed activation
  end note

  usecase userAdminOrg as ([list | add | rm] org])
  User - -> userAdminOrg: if User Account
  note right of userAdminOrg
    ≪constraint≫
    add org: org
    must not exist
  end note

  note right of userAdminOrg
    ≪constraint≫
    remove org: cascade all
    timesheets and projects
  end note
  usecase orgAdmin as ([list | add | rm] org admin)
  User - -> orgAdmin: if Organisation Account
  note right of orgAdmin
    ≪constraint≫
    cannot remove
    User as admin
  end note

  usecase ownedAdmin as ([list | add | rm] [project | timesheet])
  User - -> ownedAdmin
  note right of ownedAdmin
    ≪trigger≫
    add timesheet: init
    ts domain as genesis
  end note

  note right of ownedAdmin
    ≪constraint≫
    add: owned @id
    must have account
  end note

  note right of ownedAdmin
    ≪constraint≫
    owned is //composition//,
    cascade create & delete
    of account property
  end note

  note right of ownedAdmin
    ≪constraint≫
    timesheet provider is account
    project client is account
  end note

  User - -> ([list | add | rm] timesheet project link)
  note right
    ≪constraint≫
    project must exist
  end note

  usecase integrations as ([list | add | rm] ts or project integration)
  User - -> integrations
  note right of integrations
    ≪constraint≫
    timesheet or project must exist
  end note

  note right of integrations
    ≪constraint≫
    add: integration module
    must not exist for target
  end note

  note right of integrations
    ≪trigger≫
    garbage collect integration
    stored data
  end note

  ' TODO
  User - -> (revoke all device access)
  note right
    saves having to track
    devices individually.
    Followed by re-activate
    of current device
  end note
}

@enduml

@startuml
left to right direction

actor User
package "Account administration" {
  note "≪constraint≫ on all\nUser must be account owner OR admin" as appliesToAll

  usecase userAdminEmail as ([list | add | rm] email)
  User - -> userAdminEmail: if User Account
  note right of userAdminEmail
    ≪constraint≫
    add email: requires
    emailed activation
  end note

  usecase userAdminOrg as ([list | add | rm] org])
  User - -> userAdminOrg: if User Account
  note right of userAdminOrg
    ≪constraint≫
    add org: org
    must not exist
  end note

  note right of userAdminOrg
    ≪constraint≫
    remove org: cascade all
    timesheets and projects
  end note
  usecase orgAdmin as ([list | add | rm] org admin)
  User - -> orgAdmin: if Organisation Account
  note right of orgAdmin
    ≪constraint≫
    cannot remove
    User as admin
  end note

  usecase ownedAdmin as ([list | add | rm] [project | timesheet])
  User - -> ownedAdmin
  note right of ownedAdmin
    ≪trigger≫
    add timesheet: init
    ts domain as genesis
  end note

  note right of ownedAdmin
    ≪constraint≫
    add: owned @id
    must have account
  end note

  note right of ownedAdmin
    ≪constraint≫
    owned is //composition//,
    cascade create & delete
    of account property
  end note

  note right of ownedAdmin
    ≪constraint≫
    timesheet provider is account
    project client is account
  end note

  User - -> ([list | add | rm] timesheet project link)
  note right
    ≪constraint≫
    project must exist
  end note

  usecase integrations as ([list | add | rm] ts or project integration)
  User - -> integrations
  note right of integrations
    ≪constraint≫
    timesheet or project must exist
  end note

  note right of integrations
    ≪constraint≫
    add: integration module
    must not exist for target
  end note

  note right of integrations
    ≪trigger≫
    garbage collect integration
    stored data
  end note

  User - -> (revoke all device access)
  note right
    saves having to track
    devices individually.
    Followed by re-activate
    of current device
  end note
}

@enduml

PlantUML version 1.2021.10(Mon Aug 30 14:43:48 BST 2021)
(GPL source distribution)
Java Runtime: OpenJDK Runtime Environment
JVM: OpenJDK 64-Bit Server VM
Default Encoding: UTF-8
Language: en
Country: GB
--></g></svg>