<?xml version="1.0" encoding="UTF-8" standalone="no"?><svg xmlns="http://www.w3.org/2000/svg" xmlns:xlink="http://www.w3.org/1999/xlink" contentScriptType="application/ecmascript" contentStyleType="text/css" height="941px" preserveAspectRatio="none" style="width:475px;height:941px;background:#FFFFFF;" version="1.1" viewBox="0 0 475 941" width="475px" zoomAndPan="magnify"><defs><filter height="300%" id="f3bwi13pgm6pm" width="300%" x="-1" y="-1"><feGaussianBlur result="blurOut" stdDeviation="2.0"/><feColorMatrix in="blurOut" result="blurOut2" type="matrix" values="0 0 0 0 0 0 0 0 0 0 0 0 0 0 0 0 0 0 .4 0"/><feOffset dx="4.0" dy="4.0" in="blurOut2" result="blurOut3"/><feBlend in="SourceGraphic" in2="blurOut3" mode="normal"/></filter></defs><g><!--MD5=[e39e801fea952dcd5e3ce7a6d35cb68a]
cluster Account administration session--><polygon fill="#FFFFFF" filter="url(#f3bwi13pgm6pm)" points="212,6,447,6,454,28.4883,458,28.4883,458,934,212,934,212,6" style="stroke:#000000;stroke-width:1.5;"/><line style="stroke:#000000;stroke-width:1.5;" x1="212" x2="454" y1="28.4883" y2="28.4883"/><text fill="#000000" font-family="sans-serif" font-size="14" font-weight="bold" lengthAdjust="spacing" textLength="229" x="216" y="21.5352">Account administration session</text><ellipse cx="334.968" cy="56.9936" fill="#FEFECE" filter="url(#f3bwi13pgm6pm)" rx="67.968" ry="15.9936" style="stroke:#A80036;stroke-width:1.5;"/><text fill="#000000" font-family="sans-serif" font-size="14" lengthAdjust="spacing" textLength="88" x="288.0052" y="61.0034">view account</text><ellipse cx="335.2079" cy="126.1416" fill="#FEFECE" filter="url(#f3bwi13pgm6pm)" rx="76.2079" ry="17.6416" style="stroke:#A80036;stroke-width:1.5;"/><text fill="#000000" font-family="sans-serif" font-size="14" lengthAdjust="spacing" textLength="109" x="280.7079" y="129.4326">[add | rm] email</text><ellipse cx="335.206" cy="197.1412" fill="#FEFECE" filter="url(#f3bwi13pgm6pm)" rx="78.706" ry="18.1412" style="stroke:#A80036;stroke-width:1.5;"/><text fill="#000000" font-family="sans-serif" font-size="14" lengthAdjust="spacing" textLength="115" x="277.706" y="200.4322">[add | rm] device</text><ellipse cx="335.2394" cy="269.1479" fill="#FEFECE" filter="url(#f3bwi13pgm6pm)" rx="81.2394" ry="18.6479" style="stroke:#A80036;stroke-width:1.5;"/><text fill="#000000" font-family="sans-serif" font-size="14" lengthAdjust="spacing" textLength="121" x="274.7394" y="272.4389">view organisation</text><ellipse cx="335.2247" cy="343.9449" fill="#FEFECE" filter="url(#f3bwi13pgm6pm)" rx="95.2247" ry="21.4449" style="stroke:#A80036;stroke-width:1.5;"/><text fill="#000000" font-family="sans-serif" font-size="14" lengthAdjust="spacing" textLength="153" x="258.7247" y="347.236">add [admin | member]</text><ellipse cx="335.1075" cy="421.8215" fill="#FEFECE" filter="url(#f3bwi13pgm6pm)" rx="92.1075" ry="20.8215" style="stroke:#A80036;stroke-width:1.5;"/><text fill="#000000" font-family="sans-serif" font-size="14" lengthAdjust="spacing" textLength="146" x="262.1075" y="425.1125">rm [admin | member]</text><ellipse cx="335.1409" cy="502.0282" fill="#FEFECE" filter="url(#f3bwi13pgm6pm)" rx="105.6409" ry="23.5282" style="stroke:#A80036;stroke-width:1.5;"/><text fill="#000000" font-family="sans-serif" font-size="14" lengthAdjust="spacing" textLength="176" x="247.1409" y="505.3192">list [projects | timesheets]</text><ellipse cx="334.8124" cy="584.1625" fill="#FEFECE" filter="url(#f3bwi13pgm6pm)" rx="103.8124" ry="23.1625" style="stroke:#A80036;stroke-width:1.5;"/><text fill="#000000" font-family="sans-serif" font-size="14" lengthAdjust="spacing" textLength="172" x="248.8124" y="587.4535">view [project | timesheet]</text><ellipse cx="334.8196" cy="664.1639" fill="#FEFECE" filter="url(#f3bwi13pgm6pm)" rx="98.8196" ry="22.1639" style="stroke:#A80036;stroke-width:1.5;"/><text fill="#000000" font-family="sans-serif" font-size="14" lengthAdjust="spacing" textLength="161" x="254.3196" y="667.4549">rm [project | timesheet]</text><ellipse cx="335.199" cy="737.9398" fill="#FEFECE" filter="url(#f3bwi13pgm6pm)" rx="70.199" ry="16.4398" style="stroke:#A80036;stroke-width:1.5;"/><text fill="#000000" font-family="sans-serif" font-size="14" lengthAdjust="spacing" textLength="94" x="286.5115" y="741.6647">create project</text><ellipse cx="335.0363" cy="812.2073" fill="#FEFECE" filter="url(#f3bwi13pgm6pm)" rx="101.5363" ry="22.7073" style="stroke:#A80036;stroke-width:1.5;"/><text fill="#000000" font-family="sans-serif" font-size="14" lengthAdjust="spacing" textLength="167" x="251.5363" y="815.4983">add timesheet to project</text><ellipse cx="335.0163" cy="893.8033" fill="#FEFECE" filter="url(#f3bwi13pgm6pm)" rx="107.0163" ry="23.8033" style="stroke:#A80036;stroke-width:1.5;"/><text fill="#000000" font-family="sans-serif" font-size="14" lengthAdjust="spacing" textLength="179" x="245.5163" y="897.0943">rm timesheet from project</text><!--MD5=[8fc3522a43f8c7199df5e09e5bb0188e]
entity user--><ellipse cx="87" cy="422.5" fill="#FEFECE" filter="url(#f3bwi13pgm6pm)" rx="8" ry="8" style="stroke:#A80036;stroke-width:1.5;"/><path d="M87,430.5 L87,457.5 M74,438.5 L100,438.5 M87,457.5 L74,472.5 M87,457.5 L100,472.5 " fill="none" filter="url(#f3bwi13pgm6pm)" style="stroke:#A80036;stroke-width:1.5;"/><text fill="#000000" font-family="sans-serif" font-size="14" lengthAdjust="spacing" textLength="155" x="6" y="491.5352">User account owner or</text><text fill="#000000" font-family="sans-serif" font-size="14" lengthAdjust="spacing" textLength="162" x="6" y="508.0234">Organisation acc admin</text><!--MD5=[d53bb370a4ff5089bda773ba155bda37]
link user to view account--><path d="M88.94,412.75 C93.2,333.39 113.42,177.4 204,91 C220.17,75.57 242.45,66.93 264,62.15 " fill="none" id="user-to-view account" style="stroke:#A80036;stroke-width:1.0;"/><polygon fill="#A80036" points="269.17,61.08,259.539,59.0199,264.2773,62.1101,261.1871,66.8483,269.17,61.08" style="stroke:#A80036;stroke-width:1.0;"/><!--MD5=[040824a4a88912ac05bf953deb1142ba]
link user to [add | rm] email--><path d="M93.23,412.93 C103,346.16 130.23,227.42 204,161 C219.21,147.3 239.23,138.88 258.99,133.73 " fill="none" id="user-to-[add | rm] email" style="stroke:#A80036;stroke-width:1.0;"/><polygon fill="#A80036" points="264,132.49,254.3033,130.7654,259.1459,133.6892,256.2221,138.5319,264,132.49" style="stroke:#A80036;stroke-width:1.0;"/><!--MD5=[c71c8b3f2a9e92e501b0cba5f770e3b9]
link user to [add | rm] device--><path d="M100.12,412.95 C115.55,360.75 147.27,279.44 204,233 C219.87,220.01 240.1,211.69 259.84,206.37 " fill="none" id="user-to-[add | rm] device" style="stroke:#A80036;stroke-width:1.0;"/><polygon fill="#A80036" points="264.85,205.08,255.1382,203.4428,260.0069,206.3229,257.1268,211.1917,264.85,205.08" style="stroke:#A80036;stroke-width:1.0;"/><!--MD5=[416c7ac81806474fe5ffb66a5f739c65]
link user to view organisation--><path d="M112.72,412.92 C132.77,377.91 164.21,332.36 204,305 C220.9,293.38 241.45,285.5 261.18,280.15 " fill="none" id="user-to-view organisation" style="stroke:#A80036;stroke-width:1.0;"/><polygon fill="#A80036" points="266.17,278.85,256.4493,277.2665,261.3339,280.1197,258.4807,285.0043,266.17,278.85" style="stroke:#A80036;stroke-width:1.0;"/><!--MD5=[e5276060f98c2cb73192af5e19053eee]
link user to add [admin | member]--><path d="M152.76,412.8 C168.92,401.97 186.62,391.28 204,383 C222.63,374.12 243.73,366.76 263.42,360.9 " fill="none" id="user-to-add [admin | member]" style="stroke:#A80036;stroke-width:1.0;"/><polygon fill="#A80036" points="268.4,359.45,258.64,358.13,263.6,360.85,260.88,365.81,268.4,359.45" style="stroke:#A80036;stroke-width:1.0;"/><!--MD5=[bb66fa01cc2e915f834a790559a70149]
link user to rm [admin | member]--><path d="M168.21,448.96 C195.8,444.47 226.66,439.45 254.22,434.97 " fill="none" id="user-to-rm [admin | member]" style="stroke:#A80036;stroke-width:1.0;"/><polygon fill="#A80036" points="259.32,434.14,249.7954,431.6337,254.3846,434.9411,251.0772,439.5303,259.32,434.14" style="stroke:#A80036;stroke-width:1.0;"/><!--MD5=[ca43c6fc758e6206240191841d8a6cbd]
link user to list [projects | timesheets]--><path d="M168.21,475.04 C192.53,479 219.39,483.36 244.29,487.41 " fill="none" id="user-to-list [projects | timesheets]" style="stroke:#A80036;stroke-width:1.0;"/><polygon fill="#A80036" points="249.24,488.22,240.9972,482.8297,244.3046,487.4189,239.7154,490.7263,249.24,488.22" style="stroke:#A80036;stroke-width:1.0;"/><!--MD5=[6978175d1a0e4dc4f2bfa8d540864205]
link user to view [project | timesheet]--><path d="M150.88,511.06 C167.53,522.59 185.93,534.1 204,543 C221.81,551.77 241.91,559.19 260.88,565.21 " fill="none" id="user-to-view [project | timesheet]" style="stroke:#A80036;stroke-width:1.0;"/><polygon fill="#A80036" points="265.68,566.71,258.2761,560.2152,260.9061,565.2235,255.8977,567.8535,265.68,566.71" style="stroke:#A80036;stroke-width:1.0;"/><!--MD5=[e0a20ed3e6519163bad2c3da459275fe]
link user to rm [project | timesheet]--><path d="M111.97,511.18 C131.92,547.28 163.57,594.9 204,624 C218.8,634.66 236.51,642.52 254.01,648.31 " fill="none" id="user-to-rm [project | timesheet]" style="stroke:#A80036;stroke-width:1.0;"/><polygon fill="#A80036" points="258.94,649.89,251.5951,643.3285,254.1797,648.3604,249.1478,650.945,258.94,649.89" style="stroke:#A80036;stroke-width:1.0;"/><!--MD5=[48fe83bd3371e32f7cba0d8036a4d5f8]
link user to create project--><path d="M98.67,511.18 C113.14,566.01 144.32,653.48 204,703 C221.07,717.16 243.35,725.63 264.62,730.69 " fill="none" id="user-to-create project" style="stroke:#A80036;stroke-width:1.0;"/><polygon fill="#A80036" points="269.72,731.84,261.8184,725.9609,264.8421,730.7418,260.0612,733.7655,269.72,731.84" style="stroke:#A80036;stroke-width:1.0;"/><!--MD5=[a7c360015da6f53625f9b791bd833944]
link user to add timesheet to project--><path d="M93.01,511.26 C102.55,579.39 129.55,701.86 204,772 C215.99,783.3 231.11,791.41 246.75,797.23 " fill="none" id="user-to-add timesheet to project" style="stroke:#A80036;stroke-width:1.0;"/><polygon fill="#A80036" points="251.62,798.97,244.4923,792.1733,246.9119,797.2865,241.7987,799.7062,251.62,798.97" style="stroke:#A80036;stroke-width:1.0;"/><!--MD5=[091123cd6d4d081c2b9b758d5a56030d]
link user to rm timesheet from project--><path d="M88.62,511.13 C92.34,592.96 111.69,757.51 204,852 C215.02,863.28 229.08,871.53 243.87,877.57 " fill="none" id="user-to-rm timesheet from project" style="stroke:#A80036;stroke-width:1.0;"/><polygon fill="#A80036" points="248.9,879.54,241.9659,872.5459,244.2411,877.725,239.0619,880.0002,248.9,879.54" style="stroke:#A80036;stroke-width:1.0;"/><!--MD5=[cc0563ef6a73ddeafbd0828badae4814]
@startuml
'https://plantuml.com/use-case-diagram
left to right direction

actor "User account owner or\nOrganisation acc admin" as user
package "Account administration session" {
  user - -> (view account)
  user - -> ([add | rm] email)
  user - -> ([add | rm] device)
  user - -> (view organisation)
  user - -> (add [admin | member])
  user - -> (rm [admin | member])
  user - -> (list [projects | timesheets])
  user - -> (view [project | timesheet])
  user - -> (rm [project | timesheet])
  user - -> (create project)
  user - -> (add timesheet to project)
  user - -> (rm timesheet from project)
}

@enduml

@startuml
left to right direction

actor "User account owner or\nOrganisation acc admin" as user
package "Account administration session" {
  user - -> (view account)
  user - -> ([add | rm] email)
  user - -> ([add | rm] device)
  user - -> (view organisation)
  user - -> (add [admin | member])
  user - -> (rm [admin | member])
  user - -> (list [projects | timesheets])
  user - -> (view [project | timesheet])
  user - -> (rm [project | timesheet])
  user - -> (create project)
  user - -> (add timesheet to project)
  user - -> (rm timesheet from project)
}

@enduml

PlantUML version 1.2021.10(Mon Aug 30 14:43:48 BST 2021)
(GPL source distribution)
Java Runtime: OpenJDK Runtime Environment
JVM: OpenJDK 64-Bit Server VM
Default Encoding: UTF-8
Language: en
Country: GB
--></g></svg>