<?xml version="1.0" encoding="UTF-8" standalone="no"?><svg xmlns="http://www.w3.org/2000/svg" xmlns:xlink="http://www.w3.org/1999/xlink" contentScriptType="application/ecmascript" contentStyleType="text/css" height="697px" preserveAspectRatio="none" style="width:474px;height:697px;background:#FFFFFF;" version="1.1" viewBox="0 0 474 697" width="474px" zoomAndPan="magnify"><defs><filter height="300%" id="f19z08gygctm20" width="300%" x="-1" y="-1"><feGaussianBlur result="blurOut" stdDeviation="2.0"/><feColorMatrix in="blurOut" result="blurOut2" type="matrix" values="0 0 0 0 0 0 0 0 0 0 0 0 0 0 0 0 0 0 .4 0"/><feOffset dx="4.0" dy="4.0" in="blurOut2" result="blurOut3"/><feBlend in="SourceGraphic" in2="blurOut3" mode="normal"/></filter></defs><g><!--MD5=[e39e801fea952dcd5e3ce7a6d35cb68a]
cluster Account administration session--><polygon fill="#FFFFFF" filter="url(#f19z08gygctm20)" points="212,6,447,6,454,28.4883,457,28.4883,457,690,212,690,212,6" style="stroke:#000000;stroke-width:1.5;"/><line style="stroke:#000000;stroke-width:1.5;" x1="212" x2="454" y1="28.4883" y2="28.4883"/><text fill="#000000" font-family="sans-serif" font-size="14" font-weight="bold" lengthAdjust="spacing" textLength="229" x="216" y="21.5352">Account administration session</text><ellipse cx="334.7394" cy="60.1479" fill="#FEFECE" filter="url(#f19z08gygctm20)" rx="81.2394" ry="18.6479" style="stroke:#A80036;stroke-width:1.5;"/><text fill="#000000" font-family="sans-serif" font-size="14" lengthAdjust="spacing" textLength="121" x="274.2394" y="63.4389">view organisation</text><ellipse cx="334.6072" cy="129.9214" fill="#FEFECE" filter="url(#f19z08gygctm20)" rx="67.6072" ry="15.9214" style="stroke:#A80036;stroke-width:1.5;"/><text fill="#000000" font-family="sans-serif" font-size="14" lengthAdjust="spacing" textLength="87" x="288.1072" y="133.939">add member</text><ellipse cx="334.6356" cy="196.9271" fill="#FEFECE" filter="url(#f19z08gygctm20)" rx="65.1356" ry="15.4271" style="stroke:#A80036;stroke-width:1.5;"/><text fill="#000000" font-family="sans-serif" font-size="14" lengthAdjust="spacing" textLength="80" x="291.6356" y="200.9447">rm member</text><ellipse cx="334.699" cy="263.9398" fill="#FEFECE" filter="url(#f19z08gygctm20)" rx="70.199" ry="16.4398" style="stroke:#A80036;stroke-width:1.5;"/><text fill="#000000" font-family="sans-serif" font-size="14" lengthAdjust="spacing" textLength="94" x="286.0115" y="267.6647">create project</text><ellipse cx="334.6409" cy="339.0282" fill="#FEFECE" filter="url(#f19z08gygctm20)" rx="105.6409" ry="23.5282" style="stroke:#A80036;stroke-width:1.5;"/><text fill="#000000" font-family="sans-serif" font-size="14" lengthAdjust="spacing" textLength="176" x="246.6409" y="342.3192">list [projects | timesheets]</text><ellipse cx="334.3124" cy="421.1625" fill="#FEFECE" filter="url(#f19z08gygctm20)" rx="103.8124" ry="23.1625" style="stroke:#A80036;stroke-width:1.5;"/><text fill="#000000" font-family="sans-serif" font-size="14" lengthAdjust="spacing" textLength="172" x="248.3124" y="424.4535">view [project | timesheet]</text><ellipse cx="334.3196" cy="501.1639" fill="#FEFECE" filter="url(#f19z08gygctm20)" rx="98.8196" ry="22.1639" style="stroke:#A80036;stroke-width:1.5;"/><text fill="#000000" font-family="sans-serif" font-size="14" lengthAdjust="spacing" textLength="161" x="253.8196" y="504.4549">rm [project | timesheet]</text><ellipse cx="334.4589" cy="578.7918" fill="#FEFECE" filter="url(#f19z08gygctm20)" rx="89.4589" ry="20.2918" style="stroke:#A80036;stroke-width:1.5;"/><text fill="#000000" font-family="sans-serif" font-size="14" lengthAdjust="spacing" textLength="140" x="264.4589" y="582.0828">add project provider</text><ellipse cx="334.399" cy="654.1798" fill="#FEFECE" filter="url(#f19z08gygctm20)" rx="86.399" ry="19.6798" style="stroke:#A80036;stroke-width:1.5;"/><text fill="#000000" font-family="sans-serif" font-size="14" lengthAdjust="spacing" textLength="133" x="267.899" y="657.4708">rm project provider</text><!--MD5=[8fc3522a43f8c7199df5e09e5bb0188e]
entity user--><ellipse cx="87" cy="299.5" fill="#FEFECE" filter="url(#f19z08gygctm20)" rx="8" ry="8" style="stroke:#A80036;stroke-width:1.5;"/><path d="M87,307.5 L87,334.5 M74,315.5 L100,315.5 M87,334.5 L74,349.5 M87,334.5 L100,349.5 " fill="none" filter="url(#f19z08gygctm20)" style="stroke:#A80036;stroke-width:1.5;"/><text fill="#000000" font-family="sans-serif" font-size="14" lengthAdjust="spacing" textLength="155" x="6" y="368.5352">User account owner or</text><text fill="#000000" font-family="sans-serif" font-size="14" lengthAdjust="spacing" textLength="162" x="6" y="385.0234">Organisation acc admin</text><!--MD5=[416c7ac81806474fe5ffb66a5f739c65]
link user to view organisation--><path d="M98.63,289.51 C113.06,234.31 144.2,146.19 204,96 C218.95,83.45 237.95,75.26 256.77,69.92 " fill="none" id="user-to-view organisation" style="stroke:#A80036;stroke-width:1.0;"/><polygon fill="#A80036" points="262.06,68.49,252.3296,66.9673,257.2319,69.7899,254.4094,74.6922,262.06,68.49" style="stroke:#A80036;stroke-width:1.0;"/><!--MD5=[778f7171be25c4cb442cfa3de7cdc910]
link user to add member--><path d="M108.51,289.8 C127.57,250.07 159.68,195.71 204,164 C222.63,150.67 246.11,142.56 267.94,137.64 " fill="none" id="user-to-add member" style="stroke:#A80036;stroke-width:1.0;"/><polygon fill="#A80036" points="272.86,136.57,263.2176,134.5638,267.9731,137.6274,264.9095,142.3829,272.86,136.57" style="stroke:#A80036;stroke-width:1.0;"/><!--MD5=[8fe9796300ab1391f4715f0df1b366ec]
link user to rm member--><path d="M129.72,289.86 C150.13,268.63 176.26,245.22 204,230 C225.08,218.43 250.33,210.82 272.9,205.86 " fill="none" id="user-to-rm member" style="stroke:#A80036;stroke-width:1.0;"/><polygon fill="#A80036" points="277.98,204.78,268.3433,202.7469,273.0902,205.8237,270.0133,210.5706,277.98,204.78" style="stroke:#A80036;stroke-width:1.0;"/><!--MD5=[48fe83bd3371e32f7cba0d8036a4d5f8]
link user to create project--><path d="M168.21,309.68 C180.16,305.59 192.36,301.58 204,298 C228.79,290.38 256.57,282.94 280.02,276.98 " fill="none" id="user-to-create project" style="stroke:#A80036;stroke-width:1.0;"/><polygon fill="#A80036" points="284.96,275.73,275.2527,274.0659,280.1135,276.9595,277.2199,281.8203,284.96,275.73" style="stroke:#A80036;stroke-width:1.0;"/><!--MD5=[ca43c6fc758e6206240191841d8a6cbd]
link user to list [projects | timesheets]--><path d="M168.05,339 C185.82,339 204.97,339 223.7,339 " fill="none" id="user-to-list [projects | timesheets]" style="stroke:#A80036;stroke-width:1.0;"/><polygon fill="#A80036" points="228.98,339,219.98,335,223.98,339,219.98,343,228.98,339" style="stroke:#A80036;stroke-width:1.0;"/><!--MD5=[6978175d1a0e4dc4f2bfa8d540864205]
link user to view [project | timesheet]--><path d="M168.07,367.69 C180.09,371.88 192.35,376.1 204,380 C224.81,386.97 247.59,394.29 268.17,400.78 " fill="none" id="user-to-view [project | timesheet]" style="stroke:#A80036;stroke-width:1.0;"/><polygon fill="#A80036" points="273.08,402.33,265.6939,395.815,268.3101,400.8305,263.2947,403.4468,273.08,402.33" style="stroke:#A80036;stroke-width:1.0;"/><!--MD5=[e0a20ed3e6519163bad2c3da459275fe]
link user to rm [project | timesheet]--><path d="M124.66,388.23 C145.48,413.15 173.45,442.05 204,461 C219.99,470.92 238.63,478.54 256.71,484.34 " fill="none" id="user-to-rm [project | timesheet]" style="stroke:#A80036;stroke-width:1.0;"/><polygon fill="#A80036" points="261.79,485.93,254.4039,479.415,257.0201,484.4305,252.0047,487.0468,261.79,485.93" style="stroke:#A80036;stroke-width:1.0;"/><!--MD5=[af632deb660df887c7014bdce863673b]
link user to add project provider--><path d="M104.38,388.31 C122.02,434.02 154.42,500.72 204,540 C218.89,551.79 237.3,560.03 255.52,565.78 " fill="none" id="user-to-add project provider" style="stroke:#A80036;stroke-width:1.0;"/><polygon fill="#A80036" points="260.65,567.33,253.1877,560.9023,255.8628,565.8867,250.8785,568.5618,260.65,567.33" style="stroke:#A80036;stroke-width:1.0;"/><!--MD5=[8bb2e3b726f8d300723098d10558e882]
link user to rm project provider--><path d="M95.25,388.22 C107.02,450.44 136.2,556.7 204,617 C217.89,629.36 235.65,637.61 253.53,643.11 " fill="none" id="user-to-rm project provider" style="stroke:#A80036;stroke-width:1.0;"/><polygon fill="#A80036" points="258.58,644.59,251.06,638.23,253.78,643.19,248.82,645.91,258.58,644.59" style="stroke:#A80036;stroke-width:1.0;"/><!--MD5=[b64982be8c2890f211797570e8e18eb4]
@startuml
'https://plantuml.com/use-case-diagram
left to right direction

actor "User account owner or\nOrganisation acc admin" as user
package "Account administration session" {
  user - -> (view organisation)
  user - -> (add member)
  user - -> (rm member)
  user - -> (create project)
  user - -> (list [projects | timesheets])
  user - -> (view [project | timesheet])
  user - -> (rm [project | timesheet])
  user - -> (add project provider)
  user - -> (rm project provider)
}

@enduml

@startuml
left to right direction

actor "User account owner or\nOrganisation acc admin" as user
package "Account administration session" {
  user - -> (view organisation)
  user - -> (add member)
  user - -> (rm member)
  user - -> (create project)
  user - -> (list [projects | timesheets])
  user - -> (view [project | timesheet])
  user - -> (rm [project | timesheet])
  user - -> (add project provider)
  user - -> (rm project provider)
}

@enduml

PlantUML version 1.2021.10(Mon Aug 30 14:43:48 BST 2021)
(GPL source distribution)
Java Runtime: OpenJDK Runtime Environment
JVM: OpenJDK 64-Bit Server VM
Default Encoding: UTF-8
Language: en
Country: GB
--></g></svg>