<?xml version="1.0" encoding="UTF-8" standalone="no"?><svg xmlns="http://www.w3.org/2000/svg" xmlns:xlink="http://www.w3.org/1999/xlink" contentScriptType="application/ecmascript" contentStyleType="text/css" height="622px" preserveAspectRatio="none" style="width:555px;height:622px;background:#FFFFFF;" version="1.1" viewBox="0 0 555 622" width="555px" zoomAndPan="magnify"><defs><filter height="300%" id="fc0yz2im1dqip" width="300%" x="-1" y="-1"><feGaussianBlur result="blurOut" stdDeviation="2.0"/><feColorMatrix in="blurOut" result="blurOut2" type="matrix" values="0 0 0 0 0 0 0 0 0 0 0 0 0 0 0 0 0 0 .4 0"/><feOffset dx="4.0" dy="4.0" in="blurOut2" result="blurOut3"/><feBlend in="SourceGraphic" in2="blurOut3" mode="normal"/></filter></defs><g><!--MD5=[e39e801fea952dcd5e3ce7a6d35cb68a]
cluster Account administration session--><polygon fill="#FFFFFF" filter="url(#fc0yz2im1dqip)" points="204.5,6,439.5,6,446.5,28.4883,538.5,28.4883,538.5,615,204.5,615,204.5,6" style="stroke:#000000;stroke-width:1.5;"/><line style="stroke:#000000;stroke-width:1.5;" x1="204.5" x2="446.5" y1="28.4883" y2="28.4883"/><text fill="#000000" font-family="sans-serif" font-size="14" font-weight="bold" lengthAdjust="spacing" textLength="229" x="208.5" y="21.5352">Account administration session</text><!--MD5=[aa9c87ab1eac6b5a21b8f9ef1374f378]
cluster User Account--><polygon fill="#FFFFFF" filter="url(#fc0yz2im1dqip)" points="228.5,49,328.5,49,335.5,71.4883,514.5,71.4883,514.5,156,228.5,156,228.5,49" style="stroke:#000000;stroke-width:1.5;"/><line style="stroke:#000000;stroke-width:1.5;" x1="228.5" x2="335.5" y1="71.4883" y2="71.4883"/><text fill="#000000" font-family="sans-serif" font-size="14" font-weight="bold" lengthAdjust="spacing" textLength="94" x="232.5" y="64.5352">User Account</text><!--MD5=[fcf68e1d5f9b0094e0b9d66e85deb613]
cluster Organisation Account--><polygon fill="#FFFFFF" filter="url(#fc0yz2im1dqip)" points="246.5,180,408.5,180,415.5,202.4883,496.5,202.4883,496.5,279,246.5,279,246.5,180" style="stroke:#000000;stroke-width:1.5;"/><line style="stroke:#000000;stroke-width:1.5;" x1="246.5" x2="415.5" y1="202.4883" y2="202.4883"/><text fill="#000000" font-family="sans-serif" font-size="14" font-weight="bold" lengthAdjust="spacing" textLength="156" x="250.5" y="195.5352">Organisation Account</text><ellipse cx="371.468" cy="313.9936" fill="#FEFECE" filter="url(#fc0yz2im1dqip)" rx="67.968" ry="15.9936" style="stroke:#A80036;stroke-width:1.5;"/><text fill="#000000" font-family="sans-serif" font-size="14" lengthAdjust="spacing" textLength="88" x="324.5052" y="318.0034">view account</text><ellipse cx="371.6748" cy="396.135" fill="#FEFECE" filter="url(#fc0yz2im1dqip)" rx="143.6748" ry="31.135" style="stroke:#A80036;stroke-width:1.5;"/><text fill="#000000" font-family="sans-serif" font-size="14" lengthAdjust="spacing" textLength="257" x="243.1748" y="399.426">[list | add | rm] [projects | timesheets]</text><ellipse cx="371.3124" cy="485.1625" fill="#FEFECE" filter="url(#fc0yz2im1dqip)" rx="103.8124" ry="23.1625" style="stroke:#A80036;stroke-width:1.5;"/><text fill="#000000" font-family="sans-serif" font-size="14" lengthAdjust="spacing" textLength="172" x="285.3124" y="488.4535">view [project | timesheet]</text><ellipse cx="371.6062" cy="571.1212" fill="#FEFECE" filter="url(#fc0yz2im1dqip)" rx="126.1062" ry="27.6212" style="stroke:#A80036;stroke-width:1.5;"/><text fill="#000000" font-family="sans-serif" font-size="14" lengthAdjust="spacing" textLength="220" x="261.6062" y="574.4123">[add | rm] timesheet project link</text><ellipse cx="371.549" cy="111.8098" fill="#FEFECE" filter="url(#fc0yz2im1dqip)" rx="127.049" ry="27.8098" style="stroke:#A80036;stroke-width:1.5;"/><text fill="#000000" font-family="sans-serif" font-size="14" lengthAdjust="spacing" textLength="222" x="260.549" y="115.1008">[list | add | rm] [emails | devices]</text><ellipse cx="371.3555" cy="239.1711" fill="#FEFECE" filter="url(#fc0yz2im1dqip)" rx="108.8555" ry="24.1711" style="stroke:#A80036;stroke-width:1.5;"/><text fill="#000000" font-family="sans-serif" font-size="14" lengthAdjust="spacing" textLength="183" x="279.8555" y="242.4621">[list | add | rm] org admins</text><!--MD5=[8fc3522a43f8c7199df5e09e5bb0188e]
entity user--><ellipse cx="87" cy="315.5" fill="#FEFECE" filter="url(#fc0yz2im1dqip)" rx="8" ry="8" style="stroke:#A80036;stroke-width:1.5;"/><path d="M87,323.5 L87,350.5 M74,331.5 L100,331.5 M87,350.5 L74,365.5 M87,350.5 L100,365.5 " fill="none" filter="url(#fc0yz2im1dqip)" style="stroke:#A80036;stroke-width:1.5;"/><text fill="#000000" font-family="sans-serif" font-size="14" lengthAdjust="spacing" textLength="155" x="6" y="384.5352">User account owner or</text><text fill="#000000" font-family="sans-serif" font-size="14" lengthAdjust="spacing" textLength="162" x="6" y="401.0234">Organisation acc admin</text><!--MD5=[d53bb370a4ff5089bda773ba155bda37]
link user to view account--><path d="M168.2,343.36 C212.56,336.92 266.87,329.04 308.04,323.06 " fill="none" id="user-to-view account" style="stroke:#A80036;stroke-width:1.0;"/><polygon fill="#A80036" points="313,322.35,303.5215,319.6745,308.0511,323.0631,304.6625,327.5927,313,322.35" style="stroke:#A80036;stroke-width:1.0;"/><!--MD5=[9a2f9920204b5c2b9078de4979aa54f7]
link user to [list | add | rm] [emails | devices]--><path d="M113.55,305.83 C132.82,272.42 161.83,229.01 196.5,199 C226.56,172.98 265.77,152.5 299.35,137.96 " fill="none" id="user-to-[list | add | rm] [emails | devices]" style="stroke:#A80036;stroke-width:1.0;"/><polygon fill="#A80036" points="304.26,135.86,294.4122,135.7139,299.6613,137.8227,297.5525,143.0718,304.26,135.86" style="stroke:#A80036;stroke-width:1.0;"/><!--MD5=[8bbdf2535fb4232afb515f38218b1b3c]
link user to [list | add | rm] org admins--><path d="M137.26,305.98 C154.67,291.26 175.24,276.5 196.5,267 C217.01,257.83 240.08,251.61 262.54,247.41 " fill="none" id="user-to-[list | add | rm] org admins" style="stroke:#A80036;stroke-width:1.0;"/><polygon fill="#A80036" points="267.63,246.5,258.0644,244.155,262.7088,247.3844,259.4794,252.0288,267.63,246.5" style="stroke:#A80036;stroke-width:1.0;"/><!--MD5=[6dec37bb2d68c0fb1c5186d6fda2e49b]
link user to [list | add | rm] [projects | timesheets]--><path d="M168.2,366.64 C192.69,370.19 220.22,374.19 246.89,378.06 " fill="none" id="user-to-[list | add | rm] [projects | timesheets]" style="stroke:#A80036;stroke-width:1.0;"/><polygon fill="#A80036" points="251.86,378.78,243.5225,373.5373,246.9111,378.0669,242.3815,381.4555,251.86,378.78" style="stroke:#A80036;stroke-width:1.0;"/><!--MD5=[6978175d1a0e4dc4f2bfa8d540864205]
link user to view [project | timesheet]--><path d="M138.15,404.16 C155.46,418.84 175.75,433.74 196.5,444 C221.9,456.56 251.33,465.38 278.66,471.52 " fill="none" id="user-to-view [project | timesheet]" style="stroke:#A80036;stroke-width:1.0;"/><polygon fill="#A80036" points="283.74,472.64,275.822,466.7829,278.8591,471.5553,274.0866,474.5924,283.74,472.64" style="stroke:#A80036;stroke-width:1.0;"/><!--MD5=[fd51056321ecd7d47963a49895df125f]
link user to [add | rm] timesheet project link--><path d="M107.47,404.32 C125.12,442.75 154.79,494.55 196.5,525 C215.04,538.53 237.26,548.08 259.52,554.83 " fill="none" id="user-to-[add | rm] timesheet project link" style="stroke:#A80036;stroke-width:1.0;"/><polygon fill="#A80036" points="264.58,556.31,257.06,549.95,259.78,554.91,254.82,557.63,264.58,556.31" style="stroke:#A80036;stroke-width:1.0;"/><!--MD5=[f0c75c0fbc9fb73b9c3dce8edd7b33d8]
@startuml
'https://plantuml.com/use-case-diagram
left to right direction

actor "User account owner or\nOrganisation acc admin" as user
package "Account administration session" {
  user - -> (view account)
  package "User Account" {
    user - -> ([list | add | rm] [emails | devices])
  }
  package "Organisation Account" {
    user - -> ([list | add | rm] org admins)
  }
  user - -> ([list | add | rm] [projects | timesheets])
  user - -> (view [project | timesheet])
  user - -> ([add | rm] timesheet project link)
}

@enduml

@startuml
left to right direction

actor "User account owner or\nOrganisation acc admin" as user
package "Account administration session" {
  user - -> (view account)
  package "User Account" {
    user - -> ([list | add | rm] [emails | devices])
  }
  package "Organisation Account" {
    user - -> ([list | add | rm] org admins)
  }
  user - -> ([list | add | rm] [projects | timesheets])
  user - -> (view [project | timesheet])
  user - -> ([add | rm] timesheet project link)
}

@enduml

PlantUML version 1.2021.10(Mon Aug 30 14:43:48 BST 2021)
(GPL source distribution)
Java Runtime: OpenJDK Runtime Environment
JVM: OpenJDK 64-Bit Server VM
Default Encoding: UTF-8
Language: en
Country: GB
--></g></svg>