<?xml version="1.0" encoding="UTF-8" standalone="no"?><svg xmlns="http://www.w3.org/2000/svg" xmlns:xlink="http://www.w3.org/1999/xlink" contentScriptType="application/ecmascript" contentStyleType="text/css" height="682px" preserveAspectRatio="none" style="width:801px;height:682px;background:#FFFFFF;" version="1.1" viewBox="0 0 801 682" width="801px" zoomAndPan="magnify"><defs><filter height="300%" id="flcn57iems5op" width="300%" x="-1" y="-1"><feGaussianBlur result="blurOut" stdDeviation="2.0"/><feColorMatrix in="blurOut" result="blurOut2" type="matrix" values="0 0 0 0 0 0 0 0 0 0 0 0 0 0 0 0 0 0 .4 0"/><feOffset dx="4.0" dy="4.0" in="blurOut2" result="blurOut3"/><feBlend in="SourceGraphic" in2="blurOut3" mode="normal"/></filter></defs><g><!--MD5=[87082398342ff5d5d96b854a3cdd19e0]
cluster Account administration--><polygon fill="#FFFFFF" filter="url(#flcn57iems5op)" points="235,6,410,6,417,28.4883,784,28.4883,784,675,235,675,235,6" style="stroke:#000000;stroke-width:1.5;"/><line style="stroke:#000000;stroke-width:1.5;" x1="235" x2="417" y1="28.4883" y2="28.4883"/><text fill="#000000" font-family="sans-serif" font-size="14" font-weight="bold" lengthAdjust="spacing" textLength="169" x="239" y="21.5352">Account administration</text><path d="M260.5,84.5 L260.5,125.1211 L525.5,125.1211 L525.5,94.5 L515.5,84.5 L260.5,84.5 " fill="#FBFB77" filter="url(#flcn57iems5op)" style="stroke:#A80036;stroke-width:1.0;"/><path d="M515.5,84.5 L515.5,94.5 L525.5,94.5 L515.5,84.5 " fill="#FBFB77" style="stroke:#A80036;stroke-width:1.0;"/><text fill="#000000" font-family="sans-serif" font-size="13" lengthAdjust="spacing" textLength="83" x="266.5" y="102.0684">≪constraint≫</text><text fill="#000000" font-family="sans-serif" font-size="13" lengthAdjust="spacing" textLength="244" x="266.5" y="117.3789">User must be account owner OR admin</text><ellipse cx="392.8393" cy="180.9679" fill="#FEFECE" filter="url(#flcn57iems5op)" rx="90.3393" ry="20.4679" style="stroke:#A80036;stroke-width:1.5;"/><text fill="#000000" font-family="sans-serif" font-size="14" lengthAdjust="spacing" textLength="142" x="321.8393" y="184.2589">[list | add | rm] email</text><path d="M611.5,41 L611.5,96.9316 L752.5,96.9316 L752.5,51 L742.5,41 L611.5,41 " fill="#FBFB77" filter="url(#flcn57iems5op)" style="stroke:#A80036;stroke-width:1.0;"/><path d="M742.5,41 L742.5,51 L752.5,51 L742.5,41 " fill="#FBFB77" style="stroke:#A80036;stroke-width:1.0;"/><text fill="#000000" font-family="sans-serif" font-size="13" lengthAdjust="spacing" textLength="83" x="617.5" y="58.5684">≪constraint≫</text><text fill="#000000" font-family="sans-serif" font-size="13" lengthAdjust="spacing" textLength="120" x="617.5" y="73.8789">add email: requires</text><text fill="#000000" font-family="sans-serif" font-size="13" lengthAdjust="spacing" textLength="115" x="617.5" y="89.1895">emailed activation</text><ellipse cx="392.834" cy="256.7668" fill="#FEFECE" filter="url(#flcn57iems5op)" rx="86.834" ry="19.7668" style="stroke:#A80036;stroke-width:1.5;"/><text fill="#000000" font-family="sans-serif" font-size="14" lengthAdjust="spacing" textLength="134" x="325.834" y="260.0578">[list | add | rm] org]</text><path d="M625.5,223 L625.5,248.17 L479.72,255.21 L625.5,256.17 L625.5,278.9316 A0,0 0 0 0 625.5,278.9316 L738.5,278.9316 A0,0 0 0 0 738.5,278.9316 L738.5,233 L728.5,223 L625.5,223 A0,0 0 0 0 625.5,223 " fill="#FBFB77" filter="url(#flcn57iems5op)" style="stroke:#A80036;stroke-width:1.0;"/><path d="M728.5,223 L728.5,233 L738.5,233 L728.5,223 " fill="#FBFB77" style="stroke:#A80036;stroke-width:1.0;"/><text fill="#000000" font-family="sans-serif" font-size="13" lengthAdjust="spacing" textLength="83" x="631.5" y="240.5684">≪constraint≫</text><text fill="#000000" font-family="sans-serif" font-size="13" lengthAdjust="spacing" textLength="77" x="631.5" y="255.8789">add org: org</text><text fill="#000000" font-family="sans-serif" font-size="13" lengthAdjust="spacing" textLength="92" x="631.5" y="271.1895">must not exist</text><path d="M596,132 L596,187.9316 L768,187.9316 L768,142 L758,132 L596,132 " fill="#FBFB77" filter="url(#flcn57iems5op)" style="stroke:#A80036;stroke-width:1.0;"/><path d="M758,132 L758,142 L768,142 L758,132 " fill="#FBFB77" style="stroke:#A80036;stroke-width:1.0;"/><text fill="#000000" font-family="sans-serif" font-size="13" lengthAdjust="spacing" textLength="83" x="602" y="149.5684">≪constraint≫</text><text fill="#000000" font-family="sans-serif" font-size="13" lengthAdjust="spacing" textLength="148" x="602" y="164.8789">remove org: cascade all</text><text fill="#000000" font-family="sans-serif" font-size="13" lengthAdjust="spacing" textLength="151" x="602" y="180.1895">timesheets and projects</text><ellipse cx="393.1409" cy="342.0282" fill="#FEFECE" filter="url(#flcn57iems5op)" rx="105.6409" ry="23.5282" style="stroke:#A80036;stroke-width:1.5;"/><text fill="#000000" font-family="sans-serif" font-size="14" lengthAdjust="spacing" textLength="176" x="305.1409" y="345.3192">[list | add | rm] org admin</text><path d="M625,314 L625,338 L498.83,342 L625,346 L625,369.9316 A0,0 0 0 0 625,369.9316 L739,369.9316 A0,0 0 0 0 739,369.9316 L739,324 L729,314 L625,314 A0,0 0 0 0 625,314 " fill="#FBFB77" filter="url(#flcn57iems5op)" style="stroke:#A80036;stroke-width:1.0;"/><path d="M729,314 L729,324 L739,324 L729,314 " fill="#FBFB77" style="stroke:#A80036;stroke-width:1.0;"/><text fill="#000000" font-family="sans-serif" font-size="13" lengthAdjust="spacing" textLength="83" x="631" y="331.5684">≪constraint≫</text><text fill="#000000" font-family="sans-serif" font-size="13" lengthAdjust="spacing" textLength="93" x="631" y="346.8789">cannot remove</text><text fill="#000000" font-family="sans-serif" font-size="13" lengthAdjust="spacing" textLength="89" x="631" y="362.1895">User as admin</text><ellipse cx="392.9977" cy="431.7995" fill="#FEFECE" filter="url(#flcn57iems5op)" rx="136.9977" ry="29.7995" style="stroke:#A80036;stroke-width:1.5;"/><text fill="#000000" font-family="sans-serif" font-size="14" lengthAdjust="spacing" textLength="243" x="271.4977" y="435.0906">[list | add | rm] [project | timesheet]</text><path d="M618,496 L618,499.68 L471.29,456.78 L618,507.68 L618,551.9316 A0,0 0 0 0 618,551.9316 L746,551.9316 A0,0 0 0 0 746,551.9316 L746,506 L736,496 L618,496 A0,0 0 0 0 618,496 " fill="#FBFB77" filter="url(#flcn57iems5op)" style="stroke:#A80036;stroke-width:1.0;"/><path d="M736,496 L736,506 L746,506 L736,496 " fill="#FBFB77" style="stroke:#A80036;stroke-width:1.0;"/><text fill="#000000" font-family="sans-serif" font-size="13" lengthAdjust="spacing" textLength="61" x="624" y="513.5684">≪trigger≫</text><text fill="#000000" font-family="sans-serif" font-size="13" lengthAdjust="spacing" textLength="93" x="624" y="528.8789">add timesheet:</text><text fill="#000000" font-family="sans-serif" font-size="13" lengthAdjust="spacing" textLength="107" x="624" y="544.1895">init ts as genesis</text><path d="M612,405 L612,428.76 L530.36,432.48 L612,436.76 L612,460.9316 A0,0 0 0 0 612,460.9316 L752,460.9316 A0,0 0 0 0 752,460.9316 L752,415 L742,405 L612,405 A0,0 0 0 0 612,405 " fill="#FBFB77" filter="url(#flcn57iems5op)" style="stroke:#A80036;stroke-width:1.0;"/><path d="M742,405 L742,415 L752,415 L742,405 " fill="#FBFB77" style="stroke:#A80036;stroke-width:1.0;"/><text fill="#000000" font-family="sans-serif" font-size="13" lengthAdjust="spacing" textLength="83" x="618" y="422.5684">≪constraint≫</text><text fill="#000000" font-family="sans-serif" font-size="13" lengthAdjust="spacing" textLength="99" x="618" y="437.8789">add: owned @id</text><text fill="#000000" font-family="sans-serif" font-size="13" lengthAdjust="spacing" textLength="119" x="618" y="453.1895">must have account</text><ellipse cx="392.7638" cy="527.7528" fill="#FEFECE" filter="url(#flcn57iems5op)" rx="141.7638" ry="30.7528" style="stroke:#A80036;stroke-width:1.5;"/><text fill="#000000" font-family="sans-serif" font-size="14" lengthAdjust="spacing" textLength="253" x="266.2638" y="531.0438">[list | add | rm] timesheet project link</text><ellipse cx="392.8196" cy="618.1639" fill="#FEFECE" filter="url(#flcn57iems5op)" rx="98.8196" ry="22.1639" style="stroke:#A80036;stroke-width:1.5;"/><text fill="#000000" font-family="sans-serif" font-size="14" lengthAdjust="spacing" textLength="161" x="312.3196" y="621.4549">revoke all device access</text><path d="M597.5,587.5 L597.5,617.54 L491.97,619.71 L597.5,625.54 L597.5,658.7422 A0,0 0 0 0 597.5,658.7422 L766.5,658.7422 A0,0 0 0 0 766.5,658.7422 L766.5,597.5 L756.5,587.5 L597.5,587.5 A0,0 0 0 0 597.5,587.5 " fill="#FBFB77" filter="url(#flcn57iems5op)" style="stroke:#A80036;stroke-width:1.0;"/><path d="M756.5,587.5 L756.5,597.5 L766.5,597.5 L756.5,587.5 " fill="#FBFB77" style="stroke:#A80036;stroke-width:1.0;"/><text fill="#000000" font-family="sans-serif" font-size="13" lengthAdjust="spacing" textLength="134" x="603.5" y="605.0684">saves having to track</text><text fill="#000000" font-family="sans-serif" font-size="13" lengthAdjust="spacing" textLength="128" x="603.5" y="620.3789">devices individually.</text><text fill="#000000" font-family="sans-serif" font-size="13" lengthAdjust="spacing" textLength="148" x="603.5" y="635.6895">Followed by re-activate</text><text fill="#000000" font-family="sans-serif" font-size="13" lengthAdjust="spacing" textLength="106" x="603.5" y="651">of current device</text><!--MD5=[fee662a292a0353a69bd162820bae93b]
entity User--><ellipse cx="21.5" cy="311" fill="#FEFECE" filter="url(#flcn57iems5op)" rx="8" ry="8" style="stroke:#A80036;stroke-width:1.5;"/><path d="M21.5,319 L21.5,346 M8.5,327 L34.5,327 M21.5,346 L8.5,361 M21.5,346 L34.5,361 " fill="none" filter="url(#flcn57iems5op)" style="stroke:#A80036;stroke-width:1.5;"/><text fill="#000000" font-family="sans-serif" font-size="14" lengthAdjust="spacing" textLength="31" x="6" y="380.0352">User</text><!--MD5=[6e6cea5270541a4c2dd3c8a90a19f356]
link GMN4 to User--><path d="M260.42,99.15 C194.54,103.27 118.12,119.8 67,168 C47.89,186.02 34.65,255.7 27.84,301.23 " fill="none" id="GMN4-User" style="stroke:#A80036;stroke-width:1.0;stroke-dasharray:7.0,7.0;"/><!--MD5=[0af43a27ea7d8c7c70a340bcf4789f34]
link User to userAdminEmail--><path d="M34.36,301.43 C41.28,284.43 51.74,265.89 67,254 C132.6,202.9 227.05,186.17 297.24,181.33 " fill="none" id="User-to-userAdminEmail" style="stroke:#A80036;stroke-width:1.0;"/><polygon fill="#A80036" points="302.25,181,293.0064,177.6005,297.2608,181.3288,293.5325,185.5832,302.25,181" style="stroke:#A80036;stroke-width:1.0;"/><text fill="#000000" font-family="sans-serif" font-size="13" lengthAdjust="spacing" textLength="97" x="94.5" y="189.5684">if User Account</text><!--MD5=[3d928006dadc17550aa68a3cc79db754]
link userAdminEmail to GMN9--><path d="M458.06,166.7 C482.49,160.48 510.38,152.44 535,143 C553.37,135.95 594.6,114.87 628.57,97 " fill="none" id="userAdminEmail-GMN9" style="stroke:#A80036;stroke-width:1.0;stroke-dasharray:7.0,7.0;"/><!--MD5=[7c4e8a6294297ff40244c57d595087aa]
link User to userAdminOrg--><path d="M37.15,332.15 C45.56,326.91 56.5,320.8 67,317 C145.61,288.55 240.02,273.05 306.78,264.97 " fill="none" id="User-to-userAdminOrg" style="stroke:#A80036;stroke-width:1.0;"/><polygon fill="#A80036" points="311.94,264.36,302.5256,261.4672,306.976,264.9591,303.4841,269.4096,311.94,264.36" style="stroke:#A80036;stroke-width:1.0;"/><text fill="#000000" font-family="sans-serif" font-size="13" lengthAdjust="spacing" textLength="97" x="94.5" y="275.5684">if User Account</text><!--MD5=[9a4464d6e423a14159a3f9211861b540]
link userAdminOrg to GMN17--><path d="M453.82,242.58 C479.08,236.06 508.68,227.83 535,219 C561.96,209.96 591.11,198.53 616.22,188.14 " fill="none" id="userAdminOrg-GMN17" style="stroke:#A80036;stroke-width:1.0;stroke-dasharray:7.0,7.0;"/><!--MD5=[cff2b2305a54a52442aac09815baeff1]
link User to orgAdmin--><path d="M37.44,342 C78.15,342 193.86,342 282.12,342 " fill="none" id="User-to-orgAdmin" style="stroke:#A80036;stroke-width:1.0;"/><polygon fill="#A80036" points="287.36,342,278.36,338,282.36,342,278.36,346,287.36,342" style="stroke:#A80036;stroke-width:1.0;"/><text fill="#000000" font-family="sans-serif" font-size="13" lengthAdjust="spacing" textLength="150" x="68" y="338.5684">if Organisation Account</text><!--MD5=[98906cbddb6f364f9cfc9ce6cd6edf22]
link User to ownedAdmin--><path d="M37.44,345.64 C80.24,356.06 205.96,386.69 295.52,408.5 " fill="none" id="User-to-ownedAdmin" style="stroke:#A80036;stroke-width:1.0;"/><polygon fill="#A80036" points="300.56,409.73,292.7654,403.7097,295.7026,408.5442,290.8681,411.4815,300.56,409.73" style="stroke:#A80036;stroke-width:1.0;"/><!--MD5=[569a3ea65b6b2dbb90f755b559debcf2]
link User to [list | add | rm] timesheet project link--><path d="M37.05,364.65 C44.95,375.69 55.45,388.58 67,398 C131.86,450.87 220.97,484.48 289.48,504.25 " fill="none" id="User-to-[list | add | rm] timesheet project link" style="stroke:#A80036;stroke-width:1.0;"/><polygon fill="#A80036" points="294.38,505.65,286.8202,499.3373,289.5713,504.2802,284.6285,507.0313,294.38,505.65" style="stroke:#A80036;stroke-width:1.0;"/><!--MD5=[1b6fd5439fea7a63f90296fd4123bb53]
link User to revoke all device access--><path d="M26.53,382.74 C31.5,414.4 42.53,457.86 67,488 C124.6,558.95 226.69,591.41 301.11,606.11 " fill="none" id="User-to-revoke all device access" style="stroke:#A80036;stroke-width:1.0;"/><polygon fill="#A80036" points="306.42,607.14,298.3538,601.4888,301.5127,606.1814,296.8201,609.3404,306.42,607.14" style="stroke:#A80036;stroke-width:1.0;"/><!--MD5=[be29fb98215aa5ccfdb4cf99b2cdd778]
@startuml
'https://plantuml.com/use-case-diagram
left to right direction

actor User
package "Account administration" {
  note top
    ≪constraint≫
    User must be account owner OR admin
  end note

  usecase userAdminEmail as ([list | add | rm] email)
  User - -> userAdminEmail: if User Account
  note right of userAdminEmail
    ' TODO
    ≪constraint≫
    add email: requires
    emailed activation
  end note

  usecase userAdminOrg as ([list | add | rm] org])
  User - -> userAdminOrg: if User Account
  note right of userAdminOrg
    ≪constraint≫
    add org: org
    must not exist
  end note
  note right of userAdminOrg
    ≪constraint≫
    remove org: cascade all
    timesheets and projects
  end note
  usecase orgAdmin as ([list | add | rm] org admin)
  User - -> orgAdmin: if Organisation Account
  note right of orgAdmin
    ≪constraint≫
    cannot remove
    User as admin
  end note

  usecase ownedAdmin as ([list | add | rm] [project | timesheet])
  User - -> ownedAdmin
  note right of ownedAdmin
    ≪trigger≫
    add timesheet:
    init ts as genesis
  end note
  note right of ownedAdmin
    ≪constraint≫
    add: owned @id
    must have account
  end note

  User - -> ([list | add | rm] timesheet project link)

  ' TODO
  User - -> (revoke all device access)
  note right
    saves having to track
    devices individually.
    Followed by re-activate
    of current device
  end note
}

@enduml

@startuml
left to right direction

actor User
package "Account administration" {
  note top
    ≪constraint≫
    User must be account owner OR admin
  end note

  usecase userAdminEmail as ([list | add | rm] email)
  User - -> userAdminEmail: if User Account
  note right of userAdminEmail
    ≪constraint≫
    add email: requires
    emailed activation
  end note

  usecase userAdminOrg as ([list | add | rm] org])
  User - -> userAdminOrg: if User Account
  note right of userAdminOrg
    ≪constraint≫
    add org: org
    must not exist
  end note
  note right of userAdminOrg
    ≪constraint≫
    remove org: cascade all
    timesheets and projects
  end note
  usecase orgAdmin as ([list | add | rm] org admin)
  User - -> orgAdmin: if Organisation Account
  note right of orgAdmin
    ≪constraint≫
    cannot remove
    User as admin
  end note

  usecase ownedAdmin as ([list | add | rm] [project | timesheet])
  User - -> ownedAdmin
  note right of ownedAdmin
    ≪trigger≫
    add timesheet:
    init ts as genesis
  end note
  note right of ownedAdmin
    ≪constraint≫
    add: owned @id
    must have account
  end note

  User - -> ([list | add | rm] timesheet project link)

  User - -> (revoke all device access)
  note right
    saves having to track
    devices individually.
    Followed by re-activate
    of current device
  end note
}

@enduml

PlantUML version 1.2021.10(Mon Aug 30 14:43:48 BST 2021)
(GPL source distribution)
Java Runtime: OpenJDK Runtime Environment
JVM: OpenJDK 64-Bit Server VM
Default Encoding: UTF-8
Language: en
Country: GB
--></g></svg>