<?xml version="1.0" encoding="UTF-8" standalone="no"?>
<svg xmlns="http://www.w3.org/2000/svg"
     contentStyleType="text/css" height="729px" preserveAspectRatio="none"
     style="width:631px;height:729px;background:#FFFFFF;" version="1.1" viewBox="0 0 631 729"
     width="631px" zoomAndPan="magnify"><defs/><g><!--MD5=[aa9aa478b513889dc0a7f0c6069e4c16]
cluster ts--><g id="cluster_ts"><path d="M8.5,6 L23.5,6 A3.75,3.75 0 0 1 26,8.5 L33,28.4883 L621.5,28.4883 A2.5,2.5 0 0 1 624,30.9883 L624,719.5 A2.5,2.5 0 0 1 621.5,722 L8.5,722 A2.5,2.5 0 0 1 6,719.5 L6,8.5 A2.5,2.5 0 0 1 8.5,6 " style="stroke:#000000;stroke-width:1.5;fill:none;"/><line style="stroke:#000000;stroke-width:1.5;fill:none;" x1="6" x2="33" y1="28.4883" y2="28.4883"/><text fill="#000000" font-family="sans-serif" font-size="14" font-weight="bold" lengthAdjust="spacing" textLength="14" x="10" y="21.5352">ts</text></g><!--MD5=[0c2e12f724a2bba325ddf189ef351421]
class Timesheet--><g id="elem_Timesheet"><rect codeLine="6" fill="#F1F1F1" height="58.9766" id="Timesheet" rx="2.5" ry="2.5" style="stroke:#181818;stroke-width:0.5;" width="140" x="468" y="217"/><text fill="#000000" font-family="sans-serif" font-size="14" lengthAdjust="spacing" textLength="71" x="502.5" y="235.5352">Timesheet</text><line style="stroke:#181818;stroke-width:0.5;" x1="469" x2="607" y1="243.4883" y2="243.4883"/><text fill="#000000" font-family="sans-serif" font-size="14" lengthAdjust="spacing" textLength="128" x="474" y="261.0234">project : Project [*]</text><line style="stroke:#181818;stroke-width:0.5;" x1="469" x2="607" y1="267.9766" y2="267.9766"/></g><!--MD5=[2ca1536628238a7dc78c5d90808014f9]
class Session--><g id="elem_Session"><rect codeLine="10" fill="#F1F1F1" height="75.4648" id="Session" rx="2.5" ry="2.5" style="stroke:#181818;stroke-width:0.5;" width="162" x="236" y="41"/><text fill="#000000" font-family="sans-serif" font-size="14" lengthAdjust="spacing" textLength="52" x="291" y="59.5352">Session</text><line style="stroke:#181818;stroke-width:0.5;" x1="237" x2="397" y1="67.4883" y2="67.4883"/><text fill="#000000" font-family="sans-serif" font-size="14" lengthAdjust="spacing" textLength="136" x="242" y="85.0234">start : xsd:dateTime</text><text fill="#000000" font-family="sans-serif" font-size="14" lengthAdjust="spacing" textLength="150" x="242" y="101.5117">timesheet : Timesheet</text><line style="stroke:#181818;stroke-width:0.5;" x1="237" x2="397" y1="108.4648" y2="108.4648"/></g><!--MD5=[96293e8b231702a792e4ba32419ac2da]
class Entry--><g id="elem_Entry"><rect codeLine="17" fill="#F1F1F1" height="141.418" id="Entry" rx="2.5" ry="2.5" style="stroke:#181818;stroke-width:0.5;" width="172" x="22" y="176"/><text fill="#000000" font-family="sans-serif" font-size="14" lengthAdjust="spacing" textLength="35" x="90.5" y="194.5352">Entry</text><line style="stroke:#181818;stroke-width:0.5;" x1="23" x2="193" y1="202.4883" y2="202.4883"/><text fill="#000000" font-family="sans-serif" font-size="14" lengthAdjust="spacing" textLength="115" x="28" y="220.0234">session : Session</text><text fill="#000000" font-family="sans-serif" font-size="14" lengthAdjust="spacing" textLength="128" x="28" y="236.5117">activity : xsd:string</text><text fill="#000000" font-family="sans-serif" font-size="14" lengthAdjust="spacing" textLength="160" x="28" y="253">hourlyRate : hourlyRate</text><text fill="#000000" font-family="sans-serif" font-size="14" lengthAdjust="spacing" textLength="158" x="28" y="269.4883">vf:provider : foaf:Agent</text><text fill="#000000" font-family="sans-serif" font-size="14" lengthAdjust="spacing" textLength="136" x="28" y="285.9766">start : xsd:dateTime</text><text fill="#000000" font-family="sans-serif" font-size="14" lengthAdjust="spacing" textLength="153" x="28" y="302.4648">duration : xsd:decimal</text><line style="stroke:#181818;stroke-width:0.5;" x1="23" x2="193" y1="309.418" y2="309.418"/></g><path d="M229,188 L229,204.3105 L188,247.709 L229,212.3105 L229,228.6211 A0,0 0 0 0 229,228.6211 L352,228.6211 A0,0 0 0 0 352,228.6211 L352,198 L342,188 L229,188 A0,0 0 0 0 229,188 " fill="#FEFFDD" style="stroke:#181818;stroke-width:0.5;"/><path d="M342,188 L342,198 L352,198 L342,188 " fill="#FEFFDD" style="stroke:#181818;stroke-width:0.5;"/><text fill="#000000" font-family="sans-serif" font-size="13" lengthAdjust="spacing" textLength="95" x="235" y="205.5684">hourlyRate still</text><text fill="#000000" font-family="sans-serif" font-size="13" lengthAdjust="spacing" textLength="102" x="235" y="220.8789">to be elaborated</text><path d="M229,238.6211 L229,262.5869 L181,297.1738 L229,270.5869 L229,294.5527 A0,0 0 0 0 229,294.5527 L433,294.5527 A0,0 0 0 0 433,294.5527 L433,248.6211 L423,238.6211 L229,238.6211 A0,0 0 0 0 229,238.6211 " fill="#FEFFDD" style="stroke:#181818;stroke-width:0.5;"/><path d="M423,238.6211 L423,248.6211 L433,248.6211 L423,238.6211 " fill="#FEFFDD" style="stroke:#181818;stroke-width:0.5;"/><text fill="#000000" font-family="sans-serif" font-size="13" lengthAdjust="spacing" textLength="115" x="235" y="256.1895">fractional minutes</text><text fill="#000000" font-family="sans-serif" font-size="13" lengthAdjust="spacing" textLength="183" x="235" y="271.5">could also be a sub-property</text><text fill="#000000" font-family="sans-serif" font-size="13" lengthAdjust="spacing" textLength="122" x="235" y="286.8105">of vf:effortQuantity</text><!--MD5=[e66c67d430336d46da75a5fc9d9d1b7c]
class vf:Action--><g id="elem_vf:Action"><rect fill="#F1F1F1" height="42.4883" id="vf:Action" rx="2.5" ry="2.5" style="stroke:#181818;stroke-width:0.5;" width="66" x="53" y="410"/><text fill="#000000" font-family="sans-serif" font-size="14" lengthAdjust="spacing" textLength="60" x="56" y="428.5352">vf:Action</text><line style="stroke:#181818;stroke-width:0.5;" x1="54" x2="118" y1="436.4883" y2="436.4883"/><line style="stroke:#181818;stroke-width:0.5;" x1="54" x2="118" y1="444.4883" y2="444.4883"/></g><!--MD5=[84612bed34b900519fce1dd1c39e16c2]
class foaf:Agent--><g id="elem_foaf:Agent"><rect fill="#F1F1F1" height="42.4883" id="foaf:Agent" rx="2.5" ry="2.5" style="stroke:#181818;stroke-width:0.5;" width="78" x="174" y="664"/><text fill="#000000" font-family="sans-serif" font-size="14" lengthAdjust="spacing" textLength="72" x="177" y="682.5352">foaf:Agent</text><line style="stroke:#181818;stroke-width:0.5;" x1="175" x2="251" y1="690.4883" y2="690.4883"/><line style="stroke:#181818;stroke-width:0.5;" x1="175" x2="251" y1="698.4883" y2="698.4883"/></g><!--MD5=[79d378210367c0c6ec62ef762ddfbd1b]
class Project--><g id="elem_Project"><rect codeLine="43" fill="#F1F1F1" height="108.4414" id="Project" rx="2.5" ry="2.5" style="stroke:#181818;stroke-width:0.5;" width="179" x="191.5" y="377"/><text fill="#000000" font-family="sans-serif" font-size="14" lengthAdjust="spacing" textLength="47" x="257.5" y="395.5352">Project</text><line style="stroke:#181818;stroke-width:0.5;" x1="192.5" x2="369.5" y1="403.4883" y2="403.4883"/><text fill="#000000" font-family="sans-serif" font-size="14" lengthAdjust="spacing" textLength="167" x="197.5" y="421.0234">startDate : xsd:dateTime</text><text fill="#000000" font-family="sans-serif" font-size="14" lengthAdjust="spacing" textLength="166" x="197.5" y="437.5117">duration : om2:Duration</text><text fill="#000000" font-family="sans-serif" font-size="14" lengthAdjust="spacing" textLength="148" x="197.5" y="454">milestone : xsd:string</text><text fill="#000000" font-family="sans-serif" font-size="14" lengthAdjust="spacing" textLength="129" x="197.5" y="470.4883">client : Client [0..1]</text><line style="stroke:#181818;stroke-width:0.5;" x1="192.5" x2="369.5" y1="477.4414" y2="477.4414"/></g><!--MD5=[ed6624c6556d5e7b1bd23032162d20b7]
class Client--><g id="elem_Client"><rect codeLine="52" fill="#F1F1F1" height="58.9766" id="Client" rx="2.5" ry="2.5" style="stroke:#181818;stroke-width:0.5;" width="162" x="195" y="545"/><text fill="#000000" font-family="sans-serif" font-size="14" lengthAdjust="spacing" textLength="40" x="256" y="563.5352">Client</text><line style="stroke:#181818;stroke-width:0.5;" x1="196" x2="356" y1="571.4883" y2="571.4883"/><text fill="#000000" font-family="sans-serif" font-size="14" lengthAdjust="spacing" textLength="150" x="201" y="589.0234">foaf:name : xsd:string</text><line style="stroke:#181818;stroke-width:0.5;" x1="196" x2="356" y1="595.9766" y2="595.9766"/></g><path d="M406,405.5 L406,421.8105 L326.5,465.1973 L406,429.8105 L406,446.1211 A0,0 0 0 0 406,446.1211 L608,446.1211 A0,0 0 0 0 608,446.1211 L608,415.5 L598,405.5 L406,405.5 A0,0 0 0 0 406,405.5 " fill="#FEFFDD" style="stroke:#181818;stroke-width:0.5;"/><path d="M598,405.5 L598,415.5 L608,415.5 L598,405.5 " fill="#FEFFDD" style="stroke:#181818;stroke-width:0.5;"/><text fill="#000000" font-family="sans-serif" font-size="13" lengthAdjust="spacing" textLength="137" x="412" y="423.0684">client property is also</text><text fill="#000000" font-family="sans-serif" font-size="13" lengthAdjust="spacing" textLength="181" x="412" y="438.3789">a sub-property of vf:receiver</text><!--MD5=[1ff2cad5b06ffeafd56335cddeccaf9d]
reverse link Session to Entry--><g id="link_Session_Entry"><path codeLine="15" d="M260.54,124.35 C240.18,140.51 216.72,159.15 194.39,176.88 " fill="none" id="Session-backto-Entry" style="stroke:#181818;stroke-width:1.0;"/><polygon fill="#181818" points="270.88,116.13,263.6941,116.7325,261.4865,123.5973,268.6723,122.9949,270.88,116.13" style="stroke:#181818;stroke-width:1.0;"/><text fill="#000000" font-family="sans-serif" font-size="13" lengthAdjust="spacing" textLength="8" x="253.6391" y="137.005">1</text><text fill="#000000" font-family="sans-serif" font-size="13" lengthAdjust="spacing" textLength="6" x="202.072" y="167.8162">*</text></g><!--MD5=[889c94e4919196ae8d870bf39295b876]
link Entry to vf:Action--><g id="link_Entry_vf:Action"><path codeLine="37" d="M99.62,317.02 C96.65,341.69 93.4,368.61 90.82,389.98 " fill="none" id="Entry-to-vf:Action" style="stroke:#181818;stroke-width:1.0;"/><polygon fill="none" points="97.76,390.9,88.42,409.92,83.86,389.23,97.76,390.9" style="stroke:#181818;stroke-width:1.0;"/></g><!--MD5=[40e47b055a33d05f09d872b96785d165]
reverse link Entry to foaf:Agent--><g id="link_Entry_foaf:Agent"><path codeLine="39" d="M127.05,330.16 C130.48,345.7 133.93,361.83 137,377 C157.32,477.49 148.14,505.92 178,604 C184.4,625.03 194.78,647.9 202.58,663.78 " fill="none" id="Entry-backto-foaf:Agent" style="stroke:#181818;stroke-width:1.0;"/><polygon fill="none" points="124.19,317.28,121.5844,324.0039,126.789,328.9952,129.3945,322.2713,124.19,317.28" style="stroke:#181818;stroke-width:1.0;"/><text fill="#000000" font-family="sans-serif" font-size="13" lengthAdjust="spacing" textLength="8" x="190.5244" y="653.2459">1</text></g><!--MD5=[addc1e9e0750174350b69c33eadbb040]
link Session to Timesheet--><g id="link_Session_Timesheet"><path codeLine="41" d="M368.98,116.02 C393.99,133.83 424.28,155.73 451,176 C464.61,186.33 479.19,197.81 492.45,208.41 " fill="none" id="Session-to-Timesheet" style="stroke:#181818;stroke-width:1.0;"/><polygon fill="#181818" points="502.76,216.69,500.5854,209.8146,493.4024,209.1776,495.5771,216.053,502.76,216.69" style="stroke:#181818;stroke-width:1.0;"/><text fill="#000000" font-family="sans-serif" font-size="13" lengthAdjust="spacing" textLength="6" x="372.3168" y="137.1556">*</text><text fill="#000000" font-family="sans-serif" font-size="13" lengthAdjust="spacing" textLength="8" x="486.1763" y="206.1333">1</text></g><!--MD5=[f916e162bce7c7efe9a8de5f08f8c74c]
link Timesheet to Project--><g id="link_Timesheet_Project"><path codeLine="50" d="M503.41,276.28 C487.67,289.07 468.65,304.12 451,317 C423.23,337.26 392.1,358.39 364.14,376.82 " fill="none" id="Timesheet-Project" style="stroke:#181818;stroke-width:1.0;"/><text fill="#000000" font-family="sans-serif" font-size="13" lengthAdjust="spacing" textLength="6" x="489.6571" y="296.5718">*</text><text fill="#000000" font-family="sans-serif" font-size="13" lengthAdjust="spacing" textLength="6" x="368.9088" y="366.0913">*</text></g><!--MD5=[6d8dc9585a533a8f6e1281fffd2c5bc0]
link Project to Client--><g id="link_Project_Client"><path codeLine="56" d="M279.12,485.09 C278.41,505.32 277.62,527.62 277.02,544.75 " fill="none" id="Project-Client" style="stroke:#181818;stroke-width:1.0;"/><text fill="#000000" font-family="sans-serif" font-size="13" lengthAdjust="spacing" textLength="6" x="272.4643" y="505.9257">*</text><text fill="#000000" font-family="sans-serif" font-size="13" lengthAdjust="spacing" textLength="24" x="250.6181" y="534.2065">0..1</text></g><!--MD5=[ad42187c67222c6c63d1a8fda3a9a386]
link Client to foaf:Agent--><g id="link_Client_foaf:Agent"><path codeLine="63" d="M259.45,604.01 C251.93,616.96 242.93,632.45 234.86,646.35 " fill="none" id="Client-to-foaf:Agent" style="stroke:#181818;stroke-width:1.0;"/><polygon fill="none" points="240.77,650.12,224.67,663.9,228.66,643.09,240.77,650.12" style="stroke:#181818;stroke-width:1.0;"/></g><!--MD5=[aed86abc1506c907ea30e3105abe97ae]
@startuml
'https://plantuml.com/class-diagram

hide circle

package ts {
    class Timesheet {
        project : Project [*]
    }

    class Session {
        start : xsd:dateTime
        timesheet : Timesheet
    }

    Session "1" *- - "*" Entry

    class Entry {
        session : Session
        activity : xsd:string
        hourlyRate : hourlyRate
        vf:provider : foaf:Agent
        start : xsd:dateTime
        duration : xsd:decimal
    }

    note right of Entry::hourlyRate
        hourlyRate still
        to be elaborated
    end note

    note right of Entry::duration
        fractional minutes
        could also be a sub-property
        of vf:effortQuantity
    end note

    Entry - -|> "vf:Action"

    Entry o- - "1" "foaf:Agent"

    Session "*" - -* "1" Timesheet

    class Project {
        startDate : xsd:dateTime
        duration : om2:Duration
        milestone : xsd:string
        client : Client [0..1]
    }

    Timesheet "*" - - "*" Project

    class Client {
        foaf:name : xsd:string
    }

    Project "*" - - "0..1" Client

    note right of Project::client
    client property is also
    a sub-property of vf:receiver
    end note

    Client - -|> "foaf:Agent"

}

@enduml

@startuml

hide circle

package ts {
    class Timesheet {
        project : Project [*]
    }

    class Session {
        start : xsd:dateTime
        timesheet : Timesheet
    }

    Session "1" *- - "*" Entry

    class Entry {
        session : Session
        activity : xsd:string
        hourlyRate : hourlyRate
        vf:provider : foaf:Agent
        start : xsd:dateTime
        duration : xsd:decimal
    }

    note right of Entry::hourlyRate
        hourlyRate still
        to be elaborated
    end note

    note right of Entry::duration
        fractional minutes
        could also be a sub-property
        of vf:effortQuantity
    end note

    Entry - -|> "vf:Action"

    Entry o- - "1" "foaf:Agent"

    Session "*" - -* "1" Timesheet

    class Project {
        startDate : xsd:dateTime
        duration : om2:Duration
        milestone : xsd:string
        client : Client [0..1]
    }

    Timesheet "*" - - "*" Project

    class Client {
        foaf:name : xsd:string
    }

    Project "*" - - "0..1" Client

    note right of Project::client
    client property is also
    a sub-property of vf:receiver
    end note

    Client - -|> "foaf:Agent"

}

@enduml

PlantUML version 1.2022.4(Sat Apr 09 14:29:17 BST 2022)
(GPL source distribution)
Java Runtime: OpenJDK Runtime Environment
JVM: OpenJDK 64-Bit Server VM
Default Encoding: UTF-8
Language: en
Country: GB
--></g></svg>