<?xml version="1.0" encoding="UTF-8" standalone="no"?><svg xmlns="http://www.w3.org/2000/svg" xmlns:xlink="http://www.w3.org/1999/xlink" contentScriptType="application/ecmascript" contentStyleType="text/css" height="467px" preserveAspectRatio="none" style="width:791px;height:467px;background:#FFFFFF;" version="1.1" viewBox="0 0 791 467" width="791px" zoomAndPan="magnify"><defs><filter height="300%" id="f1j5p8e3txwqc9" width="300%" x="-1" y="-1"><feGaussianBlur result="blurOut" stdDeviation="2.0"/><feColorMatrix in="blurOut" result="blurOut2" type="matrix" values="0 0 0 0 0 0 0 0 0 0 0 0 0 0 0 0 0 0 .4 0"/><feOffset dx="4.0" dy="4.0" in="blurOut2" result="blurOut3"/><feBlend in="SourceGraphic" in2="blurOut3" mode="normal"/></filter></defs><g><!--MD5=[8fc3522a43f8c7199df5e09e5bb0188e]
entity user--><ellipse cx="93.5" cy="121.5" fill="#FEFECE" filter="url(#f1j5p8e3txwqc9)" rx="8" ry="8" style="stroke:#A80036;stroke-width:1.5;"/><path d="M93.5,129.5 L93.5,156.5 M80.5,137.5 L106.5,137.5 M93.5,156.5 L80.5,171.5 M93.5,156.5 L106.5,171.5 " fill="none" filter="url(#f1j5p8e3txwqc9)" style="stroke:#A80036;stroke-width:1.5;"/><text fill="#000000" font-family="sans-serif" font-size="14" lengthAdjust="spacing" textLength="30" x="78.5" y="190.5352">user</text><ellipse cx="349.069" cy="152.7138" fill="#FEFECE" filter="url(#f1j5p8e3txwqc9)" rx="69.069" ry="16.2138" style="stroke:#A80036;stroke-width:1.5;"/><text fill="#000000" font-family="sans-serif" font-size="14" lengthAdjust="spacing" textLength="91" x="301.255" y="156.583">configure CLI</text><ellipse cx="686.9953" cy="339.4991" fill="#FEFECE" filter="url(#f1j5p8e3txwqc9)" rx="92.9953" ry="20.9991" style="stroke:#A80036;stroke-width:1.5;"/><text fill="#000000" font-family="sans-serif" font-size="14" lengthAdjust="spacing" textLength="148" x="612.9953" y="342.7901">CLI session command</text><ellipse cx="349.0511" cy="359.4102" fill="#FEFECE" filter="url(#f1j5p8e3txwqc9)" rx="92.5511" ry="20.9102" style="stroke:#A80036;stroke-width:1.5;"/><text fill="#000000" font-family="sans-serif" font-size="14" lengthAdjust="spacing" textLength="147" x="275.5511" y="362.7012">register CLI on device</text><ellipse cx="348.834" cy="435.2668" fill="#FEFECE" filter="url(#f1j5p8e3txwqc9)" rx="86.834" ry="19.7668" style="stroke:#A80036;stroke-width:1.5;"/><text fill="#000000" font-family="sans-serif" font-size="14" lengthAdjust="spacing" textLength="134" x="281.834" y="438.5578">create user account</text><ellipse cx="348.9732" cy="83.3946" fill="#FEFECE" filter="url(#f1j5p8e3txwqc9)" rx="74.9732" ry="17.3946" style="stroke:#A80036;stroke-width:1.5;"/><text fill="#000000" font-family="sans-serif" font-size="14" lengthAdjust="spacing" textLength="106" x="295.9732" y="86.6857">open timesheet</text><path d="M257,6 L257,31.3105 A0,0 0 0 0 257,31.3105 L345,31.3105 L349,65.98 L353,31.3105 L441,31.3105 A0,0 0 0 0 441,31.3105 L441,16 L431,6 L257,6 A0,0 0 0 0 257,6 " fill="#FBFB77" filter="url(#f1j5p8e3txwqc9)" style="stroke:#A80036;stroke-width:1.0;"/><path d="M431,6 L431,16 L441,16 L431,6 " fill="#FBFB77" style="stroke:#A80036;stroke-width:1.0;"/><text fill="#000000" font-family="sans-serif" font-size="13" lengthAdjust="spacing" textLength="163" x="263" y="23.5684">see ./use-case/timesheet</text><ellipse cx="349.0312" cy="283.5062" fill="#FEFECE" filter="url(#f1j5p8e3txwqc9)" rx="85.5312" ry="19.5062" style="stroke:#A80036;stroke-width:1.5;"/><text fill="#000000" font-family="sans-serif" font-size="14" lengthAdjust="spacing" textLength="131" x="283.5312" y="286.7973">administer account</text><path d="M242,204 L242,229.3105 A0,0 0 0 0 242,229.3105 L345,229.3105 L349,263.87 L353,229.3105 L456,229.3105 A0,0 0 0 0 456,229.3105 L456,214 L446,204 L242,204 A0,0 0 0 0 242,204 " fill="#FBFB77" filter="url(#f1j5p8e3txwqc9)" style="stroke:#A80036;stroke-width:1.0;"/><path d="M446,204 L446,214 L456,214 L446,204 " fill="#FBFB77" style="stroke:#A80036;stroke-width:1.0;"/><text fill="#000000" font-family="sans-serif" font-size="13" lengthAdjust="spacing" textLength="193" x="248" y="221.5684">see ./use-case/administration</text><ellipse cx="93.2698" cy="271.354" fill="#FEFECE" filter="url(#f1j5p8e3txwqc9)" rx="87.2698" ry="19.854" style="stroke:#A80036;stroke-width:1.5;"/><text fill="#000000" font-family="sans-serif" font-size="14" lengthAdjust="spacing" textLength="135" x="25.7698" y="274.645">admin user account</text><ellipse cx="93.6664" cy="346.3333" fill="#FEFECE" filter="url(#f1j5p8e3txwqc9)" rx="84.6664" ry="19.3333" style="stroke:#A80036;stroke-width:1.5;"/><text fill="#000000" font-family="sans-serif" font-size="14" lengthAdjust="spacing" textLength="129" x="29.1664" y="349.6243">admin org account</text><!--MD5=[546576d2c5af4280b974579bbef90f18]
link user to configure CLI--><path d="M108.86,152.5 C140.17,152.5 216.46,152.5 274.52,152.5 " fill="none" id="user-to-configure CLI" style="stroke:#A80036;stroke-width:1.0;"/><polygon fill="#A80036" points="279.72,152.5,270.72,148.5,274.72,152.5,270.72,156.5,279.72,152.5" style="stroke:#A80036;stroke-width:1.0;"/><!--MD5=[af8cf8745e9630e757dd302fbb91e72d]
reverse link register CLI on device to command--><path d="M443.91,353.91 C491.75,351.06 549.62,347.62 596.78,344.81 " fill="none" id="register CLI on device-backto-command" style="stroke:#A80036;stroke-width:1.0;stroke-dasharray:7.0,7.0;"/><polygon fill="#A80036" points="438.72,354.22,447.9335,357.7,443.7119,353.9348,447.4771,349.7131,438.72,354.22" style="stroke:#A80036;stroke-width:1.0;"/><text fill="#000000" font-family="sans-serif" font-size="13" lengthAdjust="spacing" textLength="76" x="487" y="344.0684">may include</text><!--MD5=[7b4cb6fd98be4b6718d91254a03048d9]
reverse link create user account to command--><path d="M411.31,419.04 C454.16,407.43 512.67,391.36 564,376.5 C586.11,370.1 610.39,362.79 631.43,356.37 " fill="none" id="create user account-backto-command" style="stroke:#A80036;stroke-width:1.0;stroke-dasharray:7.0,7.0;"/><polygon fill="#A80036" points="406.43,420.36,416.1657,421.8486,411.2535,419.0432,414.0588,414.131,406.43,420.36" style="stroke:#A80036;stroke-width:1.0;"/><text fill="#000000" font-family="sans-serif" font-size="13" lengthAdjust="spacing" textLength="76" x="487" y="373.0684">may include</text><!--MD5=[e2d46ac71098c3362a9891434b035cd8]
link user to open timesheet--><path d="M108.86,148.59 C143.95,139.04 235.54,114.11 294.64,98.02 " fill="none" id="user-to-open timesheet" style="stroke:#A80036;stroke-width:1.0;"/><polygon fill="#A80036" points="299.55,96.69,289.8154,95.1941,294.7255,98.0032,291.9165,102.9133,299.55,96.69" style="stroke:#A80036;stroke-width:1.0;"/><!--MD5=[f4ce739f8bbbddf8f8e12d5e610cdf6f]
link open timesheet to command--><path d="M402.7,95.84 C420.38,101.27 439.73,108.7 456,118.5 C539.41,168.74 616.75,254.23 657,302.84 " fill="none" id="open timesheet-to-command" style="stroke:#A80036;stroke-width:1.0;"/><polygon fill="none" points="662.68,298.73,669.87,318.66,651.82,307.57,662.68,298.73" style="stroke:#A80036;stroke-width:1.0;"/><!--MD5=[c7f1af9d38de7e1efa89f5da7cd2ca33]
link user to administer account--><path d="M108.51,163 C133.98,181.74 190.09,221.32 242,246.5 C257.5,254.02 274.92,260.75 291.1,266.35 " fill="none" id="user-to-administer account" style="stroke:#A80036;stroke-width:1.0;"/><polygon fill="#A80036" points="296.08,268.05,288.855,261.3568,291.3481,266.4346,286.2703,268.9278,296.08,268.05" style="stroke:#A80036;stroke-width:1.0;"/><!--MD5=[b93cc553eca58ab979a926e4d796b279]
link administer account to command--><path d="M418.4,294.9 C468.28,303.21 536.48,314.58 591.55,323.76 " fill="none" id="administer account-to-command" style="stroke:#A80036;stroke-width:1.0;"/><polygon fill="none" points="592.99,316.9,611.57,327.09,590.69,330.71,592.99,316.9" style="stroke:#A80036;stroke-width:1.0;"/><!--MD5=[e98cdcf58d7ff2639df5ef11bc4e54e4]
link admin user account to administer account--><path d="M179.26,275.51 C200.31,276.51 223.11,277.59 244.93,278.62 " fill="none" id="admin user account-to-administer account" style="stroke:#A80036;stroke-width:1.0;"/><polygon fill="none" points="245.39,271.63,265.04,279.57,244.73,285.62,245.39,271.63" style="stroke:#A80036;stroke-width:1.0;"/><!--MD5=[fe67998daede26379809940dc704dfec]
link admin org account to administer account--><path d="M151.71,332.28 C186.94,323.53 232.56,312.19 270.95,302.65 " fill="none" id="admin org account-to-administer account" style="stroke:#A80036;stroke-width:1.0;"/><polygon fill="none" points="269.47,295.8,290.56,297.77,272.84,309.39,269.47,295.8" style="stroke:#A80036;stroke-width:1.0;"/><!--MD5=[6247d93a5d2a9b4a25a9691336d54306]
@startuml
'https://plantuml.com/use-case-diagram
left to right direction

user - -> (configure CLI)

usecase command as "
CLI session command"

(register CLI on device) <-. command: may include
(create user account) <-. command: may include

user - -> (open timesheet)
note top
  see ./use-case/timesheet
end note
(open timesheet) - -|> command

user - -> (administer account)
note top
  see ./use-case/administration
end note
(administer account) - -|> command
(admin user account) - -|> (administer account)
(admin org account) - -|> (administer account)

@enduml

@startuml
left to right direction

user - -> (configure CLI)

usecase command as "
CLI session command"

(register CLI on device) <-. command: may include
(create user account) <-. command: may include

user - -> (open timesheet)
note top
  see ./use-case/timesheet
end note
(open timesheet) - -|> command

user - -> (administer account)
note top
  see ./use-case/administration
end note
(administer account) - -|> command
(admin user account) - -|> (administer account)
(admin org account) - -|> (administer account)

@enduml

PlantUML version 1.2021.10(Mon Aug 30 14:43:48 BST 2021)
(GPL source distribution)
Java Runtime: OpenJDK Runtime Environment
JVM: OpenJDK 64-Bit Server VM
Default Encoding: UTF-8
Language: en
Country: GB
--></g></svg>